  0
SECTION
  2
HEADER
  9
$ACADVER
  1
AC1024
  9
$ACADMAINTVER
 70
6
  9
$DWGCODEPAGE
  3
ANSI_1252
  9
$LASTSAVEDBY
  1
ezdxf
  9
$INSBASE
 10
0.0
 20
0.0
 30
0.0
  9
$EXTMIN
 10
1e+20
 20
1e+20
 30
1e+20
  9
$EXTMAX
 10
-1e+20
 20
-1e+20
 30
-1e+20
  9
$LIMMIN
 10
0.0
 20
0.0
  9
$LIMMAX
 10
420.0
 20
297.0
  9
$ORTHOMODE
 70
0
  9
$REGENMODE
 70
1
  9
$FILLMODE
 70
1
  9
$QTEXTMODE
 70
0
  9
$MIRRTEXT
 70
1
  9
$LTSCALE
 40
1.0
  9
$ATTMODE
 70
1
  9
$TEXTSIZE
 40
2.5
  9
$TRACEWID
 40
1.0
  9
$TEXTSTYLE
  7
OpenSans
  9
$CLAYER
  8
0
  9
$CELTYPE
  6
ByLayer
  9
$CECOLOR
 62
256
  9
$CELTSCALE
 40
1.0
  9
$DISPSILH
 70
0
  9
$DIMSCALE
 40
1.0
  9
$DIMASZ
 40
0.175
  9
$DIMEXO
 40
0.125
  9
$DIMDLI
 40
3.75
  9
$DIMRND
 40
0.0
  9
$DIMDLE
 40
0.0
  9
$DIMEXE
 40
0.375
  9
$DIMTP
 40
0.0
  9
$DIMTM
 40
0.0
  9
$DIMTXT
 40
0.25
  9
$DIMCEN
 40
2.5
  9
$DIMTSZ
 40
0.0
  9
$DIMTOL
 70
0
  9
$DIMLIM
 70
0
  9
$DIMTIH
 70
0
  9
$DIMTOH
 70
0
  9
$DIMSE1
 70
0
  9
$DIMSE2
 70
0
  9
$DIMTAD
 70
1
  9
$DIMZIN
 70
12
  9
$DIMBLK
  1
ARCHTICK
  9
$DIMASO
 70
1
  9
$DIMSHO
 70
1
  9
$DIMPOST
  1

  9
$DIMAPOST
  1

  9
$DIMALT
 70
0
  9
$DIMALTD
 70
3
  9
$DIMALTF
 40
0.03937007874
  9
$DIMLFAC
 40
100.0
  9
$DIMTOFL
 70
1
  9
$DIMTVP
 40
0.0
  9
$DIMTIX
 70
0
  9
$DIMSOXD
 70
0
  9
$DIMSAH
 70
0
  9
$DIMBLK1
  1

  9
$DIMBLK2
  1

  9
$DIMSTYLE
  2
EZDXF
  9
$DIMCLRD
 70
0
  9
$DIMCLRE
 70
0
  9
$DIMCLRT
 70
0
  9
$DIMTFAC
 40
0.5
  9
$DIMGAP
 40
0.1
  9
$DIMJUST
 70
0
  9
$DIMSD1
 70
0
  9
$DIMSD2
 70
0
  9
$DIMTOLJ
 70
0
  9
$DIMTZIN
 70
8
  9
$DIMALTZ
 70
0
  9
$DIMALTTZ
 70
0
  9
$DIMUPT
 70
1
  9
$DIMDEC
 70
2
  9
$DIMTDEC
 70
2
  9
$DIMALTU
 70
2
  9
$DIMALTTD
 70
3
  9
$DIMTXSTY
  7
OpenSansCondensed-Light
  9
$DIMAUNIT
 70
0
  9
$DIMADEC
 70
2
  9
$DIMALTRND
 40
0.0
  9
$DIMAZIN
 70
3
  9
$DIMDSEP
 70
46
  9
$DIMATFIT
 70
3
  9
$DIMFRAC
 70
0
  9
$DIMLDRBLK
  1

  9
$DIMLUNIT
 70
2
  9
$DIMLWD
 70
-2
  9
$DIMLWE
 70
-2
  9
$DIMTMOVE
 70
2
  9
$DIMFXL
 40
1.0
  9
$DIMFXLON
 70
0
  9
$DIMJOGANG
 40
0.785398163397
  9
$DIMTFILL
 70
0
  9
$DIMTFILLCLR
 70
0
  9
$DIMARCSYM
 70
0
  9
$DIMLTYPE
  6

  9
$DIMLTEX1
  6

  9
$DIMLTEX2
  6

  9
$DIMTXTDIRECTION
 70
0
  9
$LUNITS
 70
2
  9
$LUPREC
 70
4
  9
$SKETCHINC
 40
1.0
  9
$FILLETRAD
 40
10.0
  9
$AUNITS
 70
0
  9
$AUPREC
 70
2
  9
$MENU
  1
.
  9
$ELEVATION
 40
0.0
  9
$PELEVATION
 40
0.0
  9
$THICKNESS
 40
0.0
  9
$LIMCHECK
 70
0
  9
$CHAMFERA
 40
0.0
  9
$CHAMFERB
 40
0.0
  9
$CHAMFERC
 40
0.0
  9
$CHAMFERD
 40
0.0
  9
$SKPOLY
 70
0
  9
$TDCREATE
 40
2461224.6653009257
  9
$TDUCREATE
 40
2458532.153996898
  9
$TDUPDATE
 40
2461224.6653009257
  9
$TDUUPDATE
 40
2458532.1544311
  9
$TDINDWG
 40
0.0
  9
$TDUSRTIMER
 40
0.0
  9
$USRTIMER
 70
1
  9
$ANGBASE
 50
0.0
  9
$ANGDIR
 70
0
  9
$PDMODE
 70
0
  9
$PDSIZE
 40
0.0
  9
$PLINEWID
 40
0.0
  9
$SPLFRAME
 70
0
  9
$SPLINETYPE
 70
6
  9
$SPLINESEGS
 70
8
  9
$HANDSEED
  5
235
  9
$SURFTAB1
 70
6
  9
$SURFTAB2
 70
6
  9
$SURFTYPE
 70
6
  9
$SURFU
 70
6
  9
$SURFV
 70
6
  9
$UCSBASE
  2

  9
$UCSNAME
  2

  9
$UCSORG
 10
0.0
 20
0.0
 30
0.0
  9
$UCSXDIR
 10
1.0
 20
0.0
 30
0.0
  9
$UCSYDIR
 10
0.0
 20
1.0
 30
0.0
  9
$UCSORTHOREF
  2

  9
$UCSORTHOVIEW
 70
0
  9
$UCSORGTOP
 10
0.0
 20
0.0
 30
0.0
  9
$UCSORGBOTTOM
 10
0.0
 20
0.0
 30
0.0
  9
$UCSORGLEFT
 10
0.0
 20
0.0
 30
0.0
  9
$UCSORGRIGHT
 10
0.0
 20
0.0
 30
0.0
  9
$UCSORGFRONT
 10
0.0
 20
0.0
 30
0.0
  9
$UCSORGBACK
 10
0.0
 20
0.0
 30
0.0
  9
$PUCSBASE
  2

  9
$PUCSNAME
  2

  9
$PUCSORG
 10
0.0
 20
0.0
 30
0.0
  9
$PUCSXDIR
 10
1.0
 20
0.0
 30
0.0
  9
$PUCSYDIR
 10
0.0
 20
1.0
 30
0.0
  9
$PUCSORTHOREF
  2

  9
$PUCSORTHOVIEW
 70
0
  9
$PUCSORGTOP
 10
0.0
 20
0.0
 30
0.0
  9
$PUCSORGBOTTOM
 10
0.0
 20
0.0
 30
0.0
  9
$PUCSORGLEFT
 10
0.0
 20
0.0
 30
0.0
  9
$PUCSORGRIGHT
 10
0.0
 20
0.0
 30
0.0
  9
$PUCSORGFRONT
 10
0.0
 20
0.0
 30
0.0
  9
$PUCSORGBACK
 10
0.0
 20
0.0
 30
0.0
  9
$USERI1
 70
0
  9
$USERI2
 70
0
  9
$USERI3
 70
0
  9
$USERI4
 70
0
  9
$USERI5
 70
0
  9
$USERR1
 40
0.0
  9
$USERR2
 40
0.0
  9
$USERR3
 40
0.0
  9
$USERR4
 40
0.0
  9
$USERR5
 40
0.0
  9
$WORLDVIEW
 70
1
  9
$SHADEDGE
 70
3
  9
$SHADEDIF
 70
70
  9
$TILEMODE
 70
1
  9
$MAXACTVP
 70
64
  9
$PINSBASE
 10
0.0
 20
0.0
 30
0.0
  9
$PLIMCHECK
 70
0
  9
$PEXTMIN
 10
1e+20
 20
1e+20
 30
1e+20
  9
$PEXTMAX
 10
-1e+20
 20
-1e+20
 30
-1e+20
  9
$PLIMMIN
 10
0.0
 20
0.0
  9
$PLIMMAX
 10
420.0
 20
297.0
  9
$UNITMODE
 70
0
  9
$VISRETAIN
 70
1
  9
$PLINEGEN
 70
0
  9
$PSLTSCALE
 70
1
  9
$TREEDEPTH
 70
3020
  9
$CMLSTYLE
  2
Standard
  9
$CMLJUST
 70
0
  9
$CMLSCALE
 40
20.0
  9
$PROXYGRAPHICS
 70
1
  9
$MEASUREMENT
 70
1
  9
$CELWEIGHT
370
-1
  9
$ENDCAPS
280
0
  9
$JOINSTYLE
280
0
  9
$LWDISPLAY
290
0
  9
$INSUNITS
 70
6
  9
$HYPERLINKBASE
  1

  9
$STYLESHEET
  1

  9
$XEDIT
290
1
  9
$CEPSNTYPE
380
0
  9
$PSTYLEMODE
290
1
  9
$FINGERPRINTGUID
  2
{CF214911-BB12-4980-9535-D8FC611095E9}
  9
$VERSIONGUID
  2
{614400EA-B691-4B4A-86BB-B952810E7043}
  9
$EXTNAMES
290
1
  9
$PSVPSCALE
 40
0.0
  9
$OLESTARTUP
290
0
  9
$SORTENTS
280
127
  9
$INDEXCTL
280
0
  9
$HIDETEXT
280
1
  9
$XCLIPFRAME
280
1
  9
$HALOGAP
280
0
  9
$OBSCOLOR
 70
257
  9
$OBSLTYPE
280
0
  9
$INTERSECTIONDISPLAY
280
0
  9
$INTERSECTIONCOLOR
 70
257
  9
$DIMASSOC
280
2
  9
$PROJECTNAME
  1

  9
$CAMERADISPLAY
290
0
  9
$LENSLENGTH
 40
50.0
  9
$CAMERAHEIGHT
 40
0.0
  9
$STEPSPERSEC
 40
24.0
  9
$STEPSIZE
 40
100.0
  9
$3DDWFPREC
 40
2.0
  9
$PSOLWIDTH
 40
0.005
  9
$PSOLHEIGHT
 40
0.08
  9
$LOFTANG1
 40
1.570796326795
  9
$LOFTANG2
 40
1.570796326795
  9
$LOFTMAG1
 40
0.0
  9
$LOFTMAG2
 40
0.0
  9
$LOFTPARAM
 70
7
  9
$LOFTNORMALS
280
1
  9
$LATITUDE
 40
37.795
  9
$LONGITUDE
 40
-122.394
  9
$NORTHDIRECTION
 40
0.0
  9
$TIMEZONE
 70
-8000
  9
$LIGHTGLYPHDISPLAY
280
1
  9
$TILEMODELIGHTSYNCH
280
1
  9
$CMATERIAL
347
20
  9
$SOLIDHIST
280
0
  9
$SHOWHIST
280
1
  9
$DWFFRAME
280
2
  9
$DGNFRAME
280
2
  9
$REALWORLDSCALE
290
1
  9
$INTERFERECOLOR
 62
256
  9
$CSHADOW
280
0
  9
$SHADOWPLANELOCATION
 40
0.0
  0
ENDSEC
  0
SECTION
  2
CLASSES
  0
CLASS
  1
ACDBDICTIONARYWDFLT
  2
AcDbDictionaryWithDefault
  3
ObjectDBX Classes
 90
0
 91
0
280
0
281
0
  0
CLASS
  1
SUN
  2
AcDbSun
  3
SCENEOE
 90
1153
 91
0
280
0
281
0
  0
CLASS
  1
VISUALSTYLE
  2
AcDbVisualStyle
  3
ObjectDBX Classes
 90
4095
 91
0
280
0
281
0
  0
CLASS
  1
MATERIAL
  2
AcDbMaterial
  3
ObjectDBX Classes
 90
1153
 91
0
280
0
281
0
  0
CLASS
  1
SCALE
  2
AcDbScale
  3
ObjectDBX Classes
 90
1153
 91
0
280
0
281
0
  0
CLASS
  1
TABLESTYLE
  2
AcDbTableStyle
  3
ObjectDBX Classes
 90
4095
 91
0
280
0
281
0
  0
CLASS
  1
MLEADERSTYLE
  2
AcDbMLeaderStyle
  3
ACDB_MLEADERSTYLE_CLASS
 90
4095
 91
0
280
0
281
0
  0
CLASS
  1
DICTIONARYVAR
  2
AcDbDictionaryVar
  3
ObjectDBX Classes
 90
0
 91
0
280
0
281
0
  0
CLASS
  1
CELLSTYLEMAP
  2
AcDbCellStyleMap
  3
ObjectDBX Classes
 90
1152
 91
0
280
0
281
0
  0
CLASS
  1
MENTALRAYRENDERSETTINGS
  2
AcDbMentalRayRenderSettings
  3
SCENEOE
 90
1024
 91
0
280
0
281
0
  0
CLASS
  1
ACDBDETAILVIEWSTYLE
  2
AcDbDetailViewStyle
  3
ObjectDBX Classes
 90
1025
 91
0
280
0
281
0
  0
CLASS
  1
ACDBSECTIONVIEWSTYLE
  2
AcDbSectionViewStyle
  3
ObjectDBX Classes
 90
1025
 91
0
280
0
281
0
  0
CLASS
  1
RASTERVARIABLES
  2
AcDbRasterVariables
  3
ISM
 90
0
 91
0
280
0
281
0
  0
CLASS
  1
ACDBPLACEHOLDER
  2
AcDbPlaceHolder
  3
ObjectDBX Classes
 90
0
 91
0
280
0
281
0
  0
CLASS
  1
LAYOUT
  2
AcDbLayout
  3
ObjectDBX Classes
 90
0
 91
0
280
0
281
0
  0
ENDSEC
  0
SECTION
  2
TABLES
  0
TABLE
  2
VPORT
  5
8
330
0
100
AcDbSymbolTable
 70
1
  0
VPORT
  5
23
330
8
100
AcDbSymbolTableRecord
100
AcDbViewportTableRecord
  2
*Active
 70
0
 10
0.0
 20
0.0
 11
1.0
 21
1.0
 12
0.0
 22
0.0
 13
0.0
 23
0.0
 14
0.5
 24
0.5
 15
0.5
 25
0.5
 16
0.0
 26
0.0
 36
1.0
 17
0.0
 27
0.0
 37
0.0
 40
1000.0
 41
1.34
 42
50.0
 43
0.0
 44
0.0
 50
0.0
 51
0.0
 71
0
 72
1000
 73
1
 74
3
 75
0
 76
0
 77
0
 78
0
281
0
 65
0
146
0.0
  0
ENDTAB
  0
TABLE
  2
LTYPE
  5
2
330
0
100
AcDbSymbolTable
 70
29
  0
LTYPE
  5
24
330
2
100
AcDbSymbolTableRecord
100
AcDbLinetypeTableRecord
  2
ByBlock
 70
0
  3

 72
65
 73
0
 40
0.0
  0
LTYPE
  5
25
330
2
100
AcDbSymbolTableRecord
100
AcDbLinetypeTableRecord
  2
ByLayer
 70
0
  3

 72
65
 73
0
 40
0.0
  0
LTYPE
  5
26
330
2
100
AcDbSymbolTableRecord
100
AcDbLinetypeTableRecord
  2
Continuous
 70
0
  3

 72
65
 73
0
 40
0.0
  0
LTYPE
  5
2F
330
2
100
AcDbSymbolTableRecord
100
AcDbLinetypeTableRecord
  2
CENTER
 70
0
  3
Center ____ _ ____ _ ____ _ ____ _ ____ _ ____
 72
65
 73
4
 40
5.08
 49
3.175
 74
0
 49
-0.635
 74
0
 49
0.635
 74
0
 49
-0.635
 74
0
  0
LTYPE
  5
30
330
2
100
AcDbSymbolTableRecord
100
AcDbLinetypeTableRecord
  2
CENTERX2
 70
0
  3
Center (2x) ________  __  ________  __  ________
 72
65
 73
4
 40
8.89
 49
6.35
 74
0
 49
-0.635
 74
0
 49
1.27
 74
0
 49
-0.635
 74
0
  0
LTYPE
  5
31
330
2
100
AcDbSymbolTableRecord
100
AcDbLinetypeTableRecord
  2
CENTER2
 70
0
  3
Center (.5x) ____ _ ____ _ ____ _ ____ _ ____
 72
65
 73
4
 40
2.54
 49
1.587
 74
0
 49
-0.318
 74
0
 49
0.318
 74
0
 49
-0.318
 74
0
  0
LTYPE
  5
32
330
2
100
AcDbSymbolTableRecord
100
AcDbLinetypeTableRecord
  2
DASHED
 70
0
  3
Dashed __ __ __ __ __ __ __ __ __ __ __ __ __ _
 72
65
 73
2
 40
1.524
 49
1.27
 74
0
 49
-0.254
 74
0
  0
LTYPE
  5
33
330
2
100
AcDbSymbolTableRecord
100
AcDbLinetypeTableRecord
  2
DASHEDX2
 70
0
  3
Dashed (2x) ____  ____  ____  ____  ____  ____
 72
65
 73
2
 40
3.048
 49
2.54
 74
0
 49
-0.508
 74
0
  0
LTYPE
  5
34
330
2
100
AcDbSymbolTableRecord
100
AcDbLinetypeTableRecord
  2
DASHED2
 70
0
  3
Dashed (.5x) _ _ _ _ _ _ _ _ _ _ _ _ _ _
 72
65
 73
2
 40
0.762
 49
0.635
 74
0
 49
-0.127
 74
0
  0
LTYPE
  5
35
330
2
100
AcDbSymbolTableRecord
100
AcDbLinetypeTableRecord
  2
PHANTOM
 70
0
  3
Phantom ______  __  __  ______  __  __  ______
 72
65
 73
6
 40
6.35
 49
3.175
 74
0
 49
-0.635
 74
0
 49
0.635
 74
0
 49
-0.635
 74
0
 49
0.635
 74
0
 49
-0.635
 74
0
  0
LTYPE
  5
36
330
2
100
AcDbSymbolTableRecord
100
AcDbLinetypeTableRecord
  2
PHANTOMX2
 70
0
  3
Phantom (2x)____________    ____    ____    ____________
 72
65
 73
6
 40
10.795
 49
6.35
 74
0
 49
-0.635
 74
0
 49
1.27
 74
0
 49
-0.635
 74
0
 49
1.27
 74
0
 49
-0.635
 74
0
  0
LTYPE
  5
37
330
2
100
AcDbSymbolTableRecord
100
AcDbLinetypeTableRecord
  2
PHANTOM2
 70
0
  3
Phantom (.5x) ___ _ _ ___ _ _ ___ _ _ ___ _ _ ___
 72
65
 73
6
 40
3.175
 49
1.587
 74
0
 49
-0.318
 74
0
 49
0.318
 74
0
 49
-0.318
 74
0
 49
0.318
 74
0
 49
-0.318
 74
0
  0
LTYPE
  5
38
330
2
100
AcDbSymbolTableRecord
100
AcDbLinetypeTableRecord
  2
DASHDOT
 70
0
  3
Dash dot __ . __ . __ . __ . __ . __ . __ . __
 72
65
 73
4
 40
3.556
 49
2.54
 74
0
 49
-0.508
 74
0
 49
0.0
 74
0
 49
-0.508
 74
0
  0
LTYPE
  5
39
330
2
100
AcDbSymbolTableRecord
100
AcDbLinetypeTableRecord
  2
DASHDOTX2
 70
0
  3
Dash dot (2x) ____  .  ____  .  ____  .  ____
 72
65
 73
4
 40
6.096
 49
5.08
 74
0
 49
-0.508
 74
0
 49
0.0
 74
0
 49
-0.508
 74
0
  0
LTYPE
  5
3A
330
2
100
AcDbSymbolTableRecord
100
AcDbLinetypeTableRecord
  2
DASHDOT2
 70
0
  3
Dash dot (.5x) _ . _ . _ . _ . _ . _ . _ . _
 72
65
 73
4
 40
1.778
 49
1.27
 74
0
 49
-0.254
 74
0
 49
0.0
 74
0
 49
-0.254
 74
0
  0
LTYPE
  5
3B
330
2
100
AcDbSymbolTableRecord
100
AcDbLinetypeTableRecord
  2
DOT
 70
0
  3
Dot .  .  .  .  .  .  .  .  .  .  .  .  .  .  .  .
 72
65
 73
2
 40
0.508
 49
0.0
 74
0
 49
-0.508
 74
0
  0
LTYPE
  5
3C
330
2
100
AcDbSymbolTableRecord
100
AcDbLinetypeTableRecord
  2
DOTX2
 70
0
  3
Dot (2x) .    .    .    .    .    .    .    . 
 72
65
 73
2
 40
1.016
 49
0.0
 74
0
 49
-1.016
 74
0
  0
LTYPE
  5
3D
330
2
100
AcDbSymbolTableRecord
100
AcDbLinetypeTableRecord
  2
DOT2
 70
0
  3
Dot (.5) . . . . . . . . . . . . . . . . . . . 
 72
65
 73
2
 40
0.254
 49
0.0
 74
0
 49
-0.254
 74
0
  0
LTYPE
  5
3E
330
2
100
AcDbSymbolTableRecord
100
AcDbLinetypeTableRecord
  2
DIVIDE
 70
0
  3
Divide __ . . __ . . __ . . __ . . __ . . __
 72
65
 73
6
 40
4.064
 49
2.54
 74
0
 49
-0.508
 74
0
 49
0.0
 74
0
 49
-0.508
 74
0
 49
0.0
 74
0
 49
-0.508
 74
0
  0
LTYPE
  5
3F
330
2
100
AcDbSymbolTableRecord
100
AcDbLinetypeTableRecord
  2
DIVIDEX2
 70
0
  3
Divide (2x) ____  . .  ____  . .  ____  . .  ____
 72
65
 73
6
 40
6.604
 49
5.08
 74
0
 49
-0.508
 74
0
 49
0.0
 74
0
 49
-0.508
 74
0
 49
0.0
 74
0
 49
-0.508
 74
0
  0
LTYPE
  5
40
330
2
100
AcDbSymbolTableRecord
100
AcDbLinetypeTableRecord
  2
DIVIDE2
 70
0
  3
Divide(.5x) _ . _ . _ . _ . _ . _ . _ . _
 72
65
 73
6
 40
2.032
 49
1.27
 74
0
 49
-0.254
 74
0
 49
0.0
 74
0
 49
-0.254
 74
0
 49
0.0
 74
0
 49
-0.254
 74
0
  0
LTYPE
  5
8C
330
2
100
AcDbSymbolTableRecord
100
AcDbLinetypeTableRecord
  2
UTIL_W
 70
0
  3
Utilidad W ------W------
 72
65
 73
3
 40
10.0
 49
4.0
 74
0
 49
-3.0
 74
2
 75
0
340
8B
 46
1.2
 50
0.0
 44
-1.86
 45
-0.6
  9
W
 49
-3.0
 74
0
  0
LTYPE
  5
8D
330
2
100
AcDbSymbolTableRecord
100
AcDbLinetypeTableRecord
  2
UTIL_SS
 70
0
  3
Utilidad SS ------SS------
 72
65
 73
3
 40
10.0
 49
4.0
 74
0
 49
-3.0
 74
2
 75
0
340
8B
 46
1.2
 50
0.0
 44
-2.22
 45
-0.6
  9
SS
 49
-3.0
 74
0
  0
LTYPE
  5
8E
330
2
100
AcDbSymbolTableRecord
100
AcDbLinetypeTableRecord
  2
UTIL_G
 70
0
  3
Utilidad G ------G------
 72
65
 73
3
 40
10.0
 49
4.0
 74
0
 49
-3.0
 74
2
 75
0
340
8B
 46
1.2
 50
0.0
 44
-1.86
 45
-0.6
  9
G
 49
-3.0
 74
0
  0
LTYPE
  5
8F
330
2
100
AcDbSymbolTableRecord
100
AcDbLinetypeTableRecord
  2
UTIL_E
 70
0
  3
Utilidad E ------E------
 72
65
 73
3
 40
10.0
 49
4.0
 74
0
 49
-3.0
 74
2
 75
0
340
8B
 46
1.2
 50
0.0
 44
-1.86
 45
-0.6
  9
E
 49
-3.0
 74
0
  0
LTYPE
  5
90
330
2
100
AcDbSymbolTableRecord
100
AcDbLinetypeTableRecord
  2
UTIL_T
 70
0
  3
Utilidad T ------T------
 72
65
 73
3
 40
10.0
 49
4.0
 74
0
 49
-3.0
 74
2
 75
0
340
8B
 46
1.2
 50
0.0
 44
-1.86
 45
-0.6
  9
T
 49
-3.0
 74
0
  0
LTYPE
  5
91
330
2
100
AcDbSymbolTableRecord
100
AcDbLinetypeTableRecord
  2
UTIL_SD
 70
0
  3
Utilidad SD ------SD------
 72
65
 73
3
 40
10.0
 49
4.0
 74
0
 49
-3.0
 74
2
 75
0
340
8B
 46
1.2
 50
0.0
 44
-2.22
 45
-0.6
  9
SD
 49
-3.0
 74
0
  0
LTYPE
  5
92
330
2
100
AcDbSymbolTableRecord
100
AcDbLinetypeTableRecord
  2
UTIL_EOH
 70
0
  3
Utilidad E(OH) ------E(OH)------
 72
65
 73
3
 40
10.0
 49
4.0
 74
0
 49
-3.0
 74
2
 75
0
340
8B
 46
1.2
 50
0.0
 44
-3.3
 45
-0.6
  9
E(OH)
 49
-3.0
 74
0
  0
LTYPE
  5
93
330
2
100
AcDbSymbolTableRecord
100
AcDbLinetypeTableRecord
  2
UTIL_TOH
 70
0
  3
Utilidad T(OH) ------T(OH)------
 72
65
 73
3
 40
10.0
 49
4.0
 74
0
 49
-3.0
 74
2
 75
0
340
8B
 46
1.2
 50
0.0
 44
-3.3
 45
-0.6
  9
T(OH)
 49
-3.0
 74
0
  0
ENDTAB
  0
TABLE
  2
LAYER
  5
1
330
0
100
AcDbSymbolTable
 70
7
  0
LAYER
  5
27
330
1
100
AcDbSymbolTableRecord
100
AcDbLayerTableRecord
  2
0
 70
0
 62
7
  6
Continuous
370
-3
390
13
347
21
  0
LAYER
  5
28
330
1
100
AcDbSymbolTableRecord
100
AcDbLayerTableRecord
  2
Defpoints
 70
0
 62
7
  6
Continuous
290
0
370
-3
390
13
347
21
  0
LAYER
  5
8A
330
1
100
AcDbSymbolTableRecord
100
AcDbLayerTableRecord
  2
VERTICES
 70
0
 62
7
  6
Continuous
370
-3
390
13
347
21
  0
LAYER
  5
94
330
1
100
AcDbSymbolTableRecord
100
AcDbLayerTableRecord
  2
AGUA
 70
0
 62
5
  6
UTIL_W
370
-3
390
13
347
21
  0
LAYER
  5
E6
330
1
100
AcDbSymbolTableRecord
100
AcDbLayerTableRecord
  2
ALCANTARILLADO
 70
0
 62
3
  6
UTIL_SS
370
-3
390
13
347
21
  0
LAYER
  5
ED
330
1
100
AcDbSymbolTableRecord
100
AcDbLayerTableRecord
  2
GAS
 70
0
 62
2
  6
UTIL_G
370
-3
390
13
347
21
  0
LAYER
  5
118
330
1
100
AcDbSymbolTableRecord
100
AcDbLayerTableRecord
  2
DRENAJE
 70
0
 62
3
  6
UTIL_SD
370
-3
390
13
347
21
  0
ENDTAB
  0
TABLE
  2
STYLE
  5
5
330
0
100
AcDbSymbolTable
 70
27
  0
STYLE
  5
29
330
5
100
AcDbSymbolTableRecord
100
AcDbTextStyleTableRecord
  2
Standard
 70
0
 40
0.0
 41
1.0
 50
0.0
 71
0
 42
2.5
  3
txt
  4

  0
STYLE
  5
41
330
5
100
AcDbSymbolTableRecord
100
AcDbTextStyleTableRecord
  2
OpenSans-Light
 70
0
 40
0.0
 41
1.0
 50
0.0
 71
0
 42
2.5
  3
OpenSans-Light.ttf
  4

  0
STYLE
  5
42
330
5
100
AcDbSymbolTableRecord
100
AcDbTextStyleTableRecord
  2
OpenSans-Light-Italic
 70
0
 40
0.0
 41
1.0
 50
0.0
 71
0
 42
2.5
  3
OpenSans-LightItalic.ttf
  4

  0
STYLE
  5
43
330
5
100
AcDbSymbolTableRecord
100
AcDbTextStyleTableRecord
  2
OpenSans
 70
0
 40
0.0
 41
1.0
 50
0.0
 71
0
 42
2.5
  3
OpenSans-Regular.ttf
  4

  0
STYLE
  5
44
330
5
100
AcDbSymbolTableRecord
100
AcDbTextStyleTableRecord
  2
OpenSans-Italic
 70
0
 40
0.0
 41
1.0
 50
0.0
 71
0
 42
2.5
  3
OpenSans-Italic.ttf
  4

  0
STYLE
  5
45
330
5
100
AcDbSymbolTableRecord
100
AcDbTextStyleTableRecord
  2
OpenSans-SemiBold
 70
0
 40
0.0
 41
1.0
 50
0.0
 71
0
 42
2.5
  3
OpenSans-SemiBold.ttf
  4

  0
STYLE
  5
46
330
5
100
AcDbSymbolTableRecord
100
AcDbTextStyleTableRecord
  2
OpenSans-SemiBoldItalic
 70
0
 40
0.0
 41
1.0
 50
0.0
 71
0
 42
2.5
  3
OpenSans-SemiBoldItalic.ttf
  4

  0
STYLE
  5
47
330
5
100
AcDbSymbolTableRecord
100
AcDbTextStyleTableRecord
  2
OpenSans-Bold
 70
0
 40
0.0
 41
1.0
 50
0.0
 71
0
 42
2.5
  3
OpenSans-Bold.ttf
  4

  0
STYLE
  5
48
330
5
100
AcDbSymbolTableRecord
100
AcDbTextStyleTableRecord
  2
OpenSans-BoldItalic
 70
0
 40
0.0
 41
1.0
 50
0.0
 71
0
 42
2.5
  3
OpenSans-BoldItalic.ttf
  4

  0
STYLE
  5
49
330
5
100
AcDbSymbolTableRecord
100
AcDbTextStyleTableRecord
  2
OpenSans-ExtraBold
 70
0
 40
0.0
 41
1.0
 50
0.0
 71
0
 42
2.5
  3
OpenSans-ExtraBold.ttf
  4

  0
STYLE
  5
4A
330
5
100
AcDbSymbolTableRecord
100
AcDbTextStyleTableRecord
  2
OpenSans-ExtraBoldItalic
 70
0
 40
0.0
 41
1.0
 50
0.0
 71
0
 42
2.5
  3
OpenSans-ExtraBoldItalic.ttf
  4

  0
STYLE
  5
4B
330
5
100
AcDbSymbolTableRecord
100
AcDbTextStyleTableRecord
  2
OpenSansCondensed-Bold
 70
0
 40
0.0
 41
1.0
 50
0.0
 71
0
 42
2.5
  3
OpenSansCondensed-Bold.ttf
  4

  0
STYLE
  5
4C
330
5
100
AcDbSymbolTableRecord
100
AcDbTextStyleTableRecord
  2
OpenSansCondensed-Light
 70
0
 40
0.0
 41
1.0
 50
0.0
 71
0
 42
2.5
  3
OpenSansCondensed-Light.ttf
  4

  0
STYLE
  5
4D
330
5
100
AcDbSymbolTableRecord
100
AcDbTextStyleTableRecord
  2
OpenSansCondensed-Italic
 70
0
 40
0.0
 41
1.0
 50
0.0
 71
0
 42
2.5
  3
OpenSansCondensed-LightItalic.ttf
  4

  0
STYLE
  5
4E
330
5
100
AcDbSymbolTableRecord
100
AcDbTextStyleTableRecord
  2
LiberationSans
 70
0
 40
0.0
 41
1.0
 50
0.0
 71
0
 42
2.5
  3
LiberationSans-Regular.ttf
  4

  0
STYLE
  5
4F
330
5
100
AcDbSymbolTableRecord
100
AcDbTextStyleTableRecord
  2
LiberationSans-Bold
 70
0
 40
0.0
 41
1.0
 50
0.0
 71
0
 42
2.5
  3
LiberationSans-Bold.ttf
  4

  0
STYLE
  5
50
330
5
100
AcDbSymbolTableRecord
100
AcDbTextStyleTableRecord
  2
LiberationSans-BoldItalic
 70
0
 40
0.0
 41
1.0
 50
0.0
 71
0
 42
2.5
  3
LiberationSans-BoldItalic.ttf
  4

  0
STYLE
  5
51
330
5
100
AcDbSymbolTableRecord
100
AcDbTextStyleTableRecord
  2
LiberationSans-Italic
 70
0
 40
0.0
 41
1.0
 50
0.0
 71
0
 42
2.5
  3
LiberationSans-Italic.ttf
  4

  0
STYLE
  5
52
330
5
100
AcDbSymbolTableRecord
100
AcDbTextStyleTableRecord
  2
LiberationSerif
 70
0
 40
0.0
 41
1.0
 50
0.0
 71
0
 42
2.5
  3
LiberationSerif-Regular.ttf
  4

  0
STYLE
  5
53
330
5
100
AcDbSymbolTableRecord
100
AcDbTextStyleTableRecord
  2
LiberationSerif-Bold
 70
0
 40
0.0
 41
1.0
 50
0.0
 71
0
 42
2.5
  3
LiberationSerif-Bold.ttf
  4

  0
STYLE
  5
54
330
5
100
AcDbSymbolTableRecord
100
AcDbTextStyleTableRecord
  2
LiberationSerif-BoldItalic
 70
0
 40
0.0
 41
1.0
 50
0.0
 71
0
 42
2.5
  3
LiberationSerif-BoldItalic.ttf
  4

  0
STYLE
  5
55
330
5
100
AcDbSymbolTableRecord
100
AcDbTextStyleTableRecord
  2
LiberationSerif-Italic
 70
0
 40
0.0
 41
1.0
 50
0.0
 71
0
 42
2.5
  3
LiberationSerif-Italic.ttf
  4

  0
STYLE
  5
56
330
5
100
AcDbSymbolTableRecord
100
AcDbTextStyleTableRecord
  2
LiberationMono
 70
0
 40
0.0
 41
1.0
 50
0.0
 71
0
 42
2.5
  3
LiberationMono-Regular.ttf
  4

  0
STYLE
  5
57
330
5
100
AcDbSymbolTableRecord
100
AcDbTextStyleTableRecord
  2
LiberationMono-Bold
 70
0
 40
0.0
 41
1.0
 50
0.0
 71
0
 42
2.5
  3
LiberationMono-Bold.ttf
  4

  0
STYLE
  5
58
330
5
100
AcDbSymbolTableRecord
100
AcDbTextStyleTableRecord
  2
LiberationMono-BoldItalic
 70
0
 40
0.0
 41
1.0
 50
0.0
 71
0
 42
2.5
  3
LiberationMono-BoldItalic.ttf
  4

  0
STYLE
  5
59
330
5
100
AcDbSymbolTableRecord
100
AcDbTextStyleTableRecord
  2
LiberationMono-Italic
 70
0
 40
0.0
 41
1.0
 50
0.0
 71
0
 42
2.5
  3
LiberationMono-Italic.ttf
  4

  0
STYLE
  5
8B
330
5
100
AcDbSymbolTableRecord
100
AcDbTextStyleTableRecord
  2
LTSTD
 70
0
 40
0.0
 41
1.0
 50
0.0
 71
0
 42
2.5
  3
Arial
  4

  0
ENDTAB
  0
TABLE
  2
VIEW
  5
7
330
0
100
AcDbSymbolTable
 70
0
  0
ENDTAB
  0
TABLE
  2
UCS
  5
6
330
0
100
AcDbSymbolTable
 70
0
  0
ENDTAB
  0
TABLE
  2
APPID
  5
3
330
0
100
AcDbSymbolTable
 70
3
  0
APPID
  5
2A
330
3
100
AcDbSymbolTableRecord
100
AcDbRegAppTableRecord
  2
ACAD
 70
0
  0
APPID
  5
232
330
3
100
AcDbSymbolTableRecord
100
AcDbRegAppTableRecord
  2
HATCHBACKGROUNDCOLOR
 70
0
  0
APPID
  5
233
330
3
100
AcDbSymbolTableRecord
100
AcDbRegAppTableRecord
  2
EZDXF
 70
0
  0
ENDTAB
  0
TABLE
  2
DIMSTYLE
  5
4
330
0
100
AcDbSymbolTable
 70
12
100
AcDbDimStyleTable
  0
DIMSTYLE
105
2B
330
4
100
AcDbSymbolTableRecord
100
AcDbDimStyleTableRecord
  2
Standard
 70
0
 40
1.0
 41
2.5
 42
0.625
 43
3.75
 44
1.25
 45
0.0
 46
0.0
 47
0.0
 48
0.0
 49
2.5
140
2.5
141
2.5
142
0.0
143
0.03937007874
144
1.0
145
0.0
146
1.0
147
0.625
148
0.0
 69
0
 70
0
 71
0
 72
0
 73
0
 74
0
 75
0
 76
0
 77
1
 78
8
 79
3
170
0
171
3
172
1
173
0
174
0
175
0
176
0
177
0
178
0
179
2
271
2
272
2
273
2
274
3
275
0
276
0
277
2
278
44
279
0
280
0
281
0
282
0
283
0
284
8
285
0
286
0
288
0
289
3
290
0
371
-2
372
-2
  0
DIMSTYLE
105
73
330
4
100
AcDbSymbolTableRecord
100
AcDbDimStyleTableRecord
  2
EZDXF
 70
0
 40
1.0
 41
0.175
 42
0.125
 43
3.75
 44
0.375
 45
0.0
 46
0.0
 47
0.0
 48
0.0
 49
2.5
140
0.25
141
2.5
142
0.0
143
0.03937007874
144
100.0
145
0.0
146
0.5
147
0.1
148
0.0
 69
0
 70
0
 71
0
 72
0
 73
0
 74
0
 75
0
 76
0
 77
1
 78
12
 79
3
170
0
171
3
172
1
173
0
174
0
175
0
176
0
177
0
178
0
179
2
271
2
272
2
273
2
274
3
275
0
276
0
277
2
278
46
279
2
280
0
281
0
282
0
283
0
284
8
285
0
286
0
288
1
289
3
290
0
340
4C
342
74
371
-2
372
-2
  0
DIMSTYLE
105
7C
330
4
100
AcDbSymbolTableRecord
100
AcDbDimStyleTableRecord
  2
EZ_M_100_H25_CM
 70
0
 40
1.0
 41
0.25
 42
0.125
 43
3.75
 44
0.375
 45
0.0
 46
0.0
 47
0.0
 48
0.0
 49
2.5
140
0.25
141
2.5
142
0.125
143
0.03937007874
144
100.0
145
0.0
146
0.5
147
0.1
148
0.0
 69
0
 70
0
 71
0
 72
0
 73
0
 74
0
 75
0
 76
0
 77
1
 78
12
 79
3
170
0
171
3
172
1
173
0
174
0
175
0
176
0
177
0
178
0
179
2
271
2
272
2
273
2
274
3
275
0
276
0
277
2
278
46
279
2
280
0
281
0
282
0
283
0
284
8
285
0
286
0
288
1
289
3
290
0
340
4C
371
-2
372
-2
  0
DIMSTYLE
105
7D
330
4
100
AcDbSymbolTableRecord
100
AcDbDimStyleTableRecord
  2
EZ_M_50_H25_CM
 70
0
 40
1.0
 41
0.125
 42
0.0625
 43
3.75
 44
0.1875
 45
0.0
 46
0.0
 47
0.0
 48
0.0
 49
2.5
140
0.125
141
2.5
142
0.0625
143
0.03937007874
144
100.0
145
0.0
146
0.5
147
0.05
148
0.0
 69
0
 70
0
 71
0
 72
0
 73
0
 74
0
 75
0
 76
0
 77
1
 78
12
 79
3
170
0
171
3
172
1
173
0
174
0
175
0
176
0
177
0
178
0
179
2
271
2
272
2
273
2
274
3
275
0
276
0
277
2
278
46
279
2
280
0
281
0
282
0
283
0
284
8
285
0
286
0
288
1
289
3
290
0
340
4C
371
-2
372
-2
  0
DIMSTYLE
105
7E
330
4
100
AcDbSymbolTableRecord
100
AcDbDimStyleTableRecord
  2
EZ_M_25_H25_CM
 70
0
 40
1.0
 41
0.0625
 42
0.03125
 43
3.75
 44
0.09375
 45
0.0
 46
0.0
 47
0.0
 48
0.0
 49
2.5
140
0.0625
141
2.5
142
0.03125
143
0.03937007874
144
100.0
145
0.0
146
0.5
147
0.025
148
0.0
 69
0
 70
0
 71
0
 72
0
 73
0
 74
0
 75
0
 76
0
 77
1
 78
12
 79
3
170
0
171
3
172
1
173
0
174
0
175
0
176
0
177
0
178
0
179
2
271
2
272
2
273
2
274
3
275
0
276
0
277
2
278
46
279
2
280
0
281
0
282
0
283
0
284
8
285
0
286
0
288
1
289
3
290
0
340
4C
371
-2
372
-2
  0
DIMSTYLE
105
7F
330
4
100
AcDbSymbolTableRecord
100
AcDbDimStyleTableRecord
  2
EZ_M_20_H25_CM
 70
0
 40
1.0
 41
0.05
 42
0.025
 43
3.75
 44
0.07500000000000001
 45
0.0
 46
0.0
 47
0.0
 48
0.0
 49
2.5
140
0.05
141
2.5
142
0.025
143
0.03937007874
144
100.0
145
0.0
146
0.5
147
0.020000000000000004
148
0.0
 69
0
 70
0
 71
0
 72
0
 73
0
 74
0
 75
0
 76
0
 77
1
 78
12
 79
3
170
0
171
3
172
1
173
0
174
0
175
0
176
0
177
0
178
0
179
2
271
2
272
2
273
2
274
3
275
0
276
0
277
2
278
46
279
2
280
0
281
0
282
0
283
0
284
8
285
0
286
0
288
1
289
3
290
0
340
4C
371
-2
372
-2
  0
DIMSTYLE
105
80
330
4
100
AcDbSymbolTableRecord
100
AcDbDimStyleTableRecord
  2
EZ_M_10_H25_CM
 70
0
 40
1.0
 41
0.025
 42
0.0125
 43
3.75
 44
0.037500000000000006
 45
0.0
 46
0.0
 47
0.0
 48
0.0
 49
2.5
140
0.025
141
2.5
142
0.0125
143
0.03937007874
144
100.0
145
0.0
146
0.5
147
0.010000000000000002
148
0.0
 69
0
 70
0
 71
0
 72
0
 73
0
 74
0
 75
0
 76
0
 77
1
 78
12
 79
3
170
0
171
3
172
1
173
0
174
0
175
0
176
0
177
0
178
0
179
2
271
2
272
2
273
2
274
3
275
0
276
0
277
2
278
46
279
2
280
0
281
0
282
0
283
0
284
8
285
0
286
0
288
1
289
3
290
0
340
4C
371
-2
372
-2
  0
DIMSTYLE
105
81
330
4
100
AcDbSymbolTableRecord
100
AcDbDimStyleTableRecord
  2
EZ_M_5_H25_CM
 70
0
 40
1.0
 41
0.0125
 42
0.00625
 43
3.75
 44
0.018750000000000003
 45
0.0
 46
0.0
 47
0.0
 48
0.0
 49
2.5
140
0.0125
141
2.5
142
0.00625
143
0.03937007874
144
100.0
145
0.0
146
0.5
147
0.005000000000000001
148
0.0
 69
0
 70
0
 71
0
 72
0
 73
0
 74
0
 75
0
 76
0
 77
1
 78
12
 79
3
170
0
171
3
172
1
173
0
174
0
175
0
176
0
177
0
178
0
179
2
271
2
272
2
273
2
274
3
275
0
276
0
277
2
278
46
279
2
280
0
281
0
282
0
283
0
284
8
285
0
286
0
288
1
289
3
290
0
340
4C
371
-2
372
-2
  0
DIMSTYLE
105
82
330
4
100
AcDbSymbolTableRecord
100
AcDbDimStyleTableRecord
  2
EZ_M_1_H25_CM
 70
0
 40
1.0
 41
0.0025
 42
0.00125
 43
3.75
 44
0.00375
 45
0.0
 46
0.0
 47
0.0
 48
0.0
 49
2.5
140
0.0025
141
2.5
142
0.00125
143
0.03937007874
144
100.0
145
0.0
146
0.5
147
0.001
148
0.0
 69
0
 70
0
 71
0
 72
0
 73
0
 74
0
 75
0
 76
0
 77
1
 78
12
 79
3
170
0
171
3
172
1
173
0
174
0
175
0
176
0
177
0
178
0
179
2
271
2
272
2
273
2
274
3
275
0
276
0
277
2
278
46
279
2
280
0
281
0
282
0
283
0
284
8
285
0
286
0
288
1
289
3
290
0
340
4C
371
-2
372
-2
  0
DIMSTYLE
105
83
330
4
100
AcDbSymbolTableRecord
100
AcDbDimStyleTableRecord
  2
EZ_RADIUS
 70
0
 40
1.0
 41
0.25
 42
0.125
 43
3.75
 44
0.375
 45
0.0
 46
0.0
 47
0.0
 48
0.0
 49
2.5
140
0.25
141
0.0
142
0.0
143
0.03937007874
144
100.0
145
0.0
146
0.5
147
0.1
148
0.0
 69
0
 70
0
 71
0
 72
0
 73
0
 74
0
 75
0
 76
0
 77
1
 78
12
 79
3
170
0
171
3
172
0
173
0
174
0
175
0
176
0
177
0
178
0
179
2
271
2
272
2
273
2
274
3
275
0
276
0
277
2
278
46
279
1
280
0
281
0
282
0
283
0
284
8
285
0
286
0
288
1
289
3
290
0
340
4C
342
84
371
-2
372
-2
  0
DIMSTYLE
105
88
330
4
100
AcDbSymbolTableRecord
100
AcDbDimStyleTableRecord
  2
EZ_RADIUS_INSIDE
 70
0
 40
1.0
 41
0.25
 42
0.125
 43
3.75
 44
0.375
 45
0.0
 46
0.0
 47
0.0
 48
0.0
 49
2.5
140
0.25
141
0.0
142
0.0
143
0.03937007874
144
100.0
145
0.0
146
0.5
147
0.1
148
0.0
 69
0
 70
0
 71
0
 72
0
 73
0
 74
0
 75
0
 76
0
 77
0
 78
12
 79
3
170
0
171
3
172
0
173
0
174
1
175
0
176
0
177
0
178
0
179
2
271
2
272
2
273
2
274
3
275
0
276
0
277
2
278
46
279
0
280
0
281
0
282
0
283
0
284
8
285
0
286
0
288
1
289
0
290
0
340
4C
342
84
371
-2
372
-2
  0
DIMSTYLE
105
89
330
4
100
AcDbSymbolTableRecord
100
AcDbDimStyleTableRecord
  2
EZ_CURVED
 70
0
 40
1.0
 41
0.25
 42
0.125
 43
3.75
 44
0.375
 45
0.0
 46
0.0
 47
0.0
 48
0.0
 49
2.5
140
0.25
141
2.5
142
0.0
143
0.03937007874
144
100.0
145
0.0
146
0.5
147
0.1
148
0.0
 69
0
 70
0
 71
0
 72
0
 73
0
 74
0
 75
0
 76
0
 77
1
 78
12
 79
2
 90
2
170
0
171
3
172
1
173
0
174
0
175
0
176
0
177
0
178
0
179
2
271
2
272
2
273
2
274
3
275
0
276
0
277
2
278
46
279
2
280
0
281
0
282
0
283
0
284
8
285
0
286
0
288
1
289
3
290
0
340
4C
371
-2
372
-2
  0
ENDTAB
  0
TABLE
  2
BLOCK_RECORD
  5
9
330
0
100
AcDbSymbolTable
 70
5
  0
BLOCK_RECORD
  5
17
330
9
100
AcDbSymbolTableRecord
100
AcDbBlockTableRecord
  2
*Model_Space
340
1A
 70
0
280
1
281
0
  0
BLOCK_RECORD
  5
1B
330
9
100
AcDbSymbolTableRecord
100
AcDbBlockTableRecord
  2
*Paper_Space
340
1E
 70
0
280
1
281
0
  0
BLOCK_RECORD
  5
74
330
9
100
AcDbSymbolTableRecord
100
AcDbBlockTableRecord
  2
_ARCHTICK
340
0
 70
0
280
1
281
0
  0
BLOCK_RECORD
  5
78
330
9
100
AcDbSymbolTableRecord
100
AcDbBlockTableRecord
  2
_CLOSEDFILLED
340
0
 70
0
280
1
281
0
  0
BLOCK_RECORD
  5
84
330
9
100
AcDbSymbolTableRecord
100
AcDbBlockTableRecord
  2
_CLOSEDBLANK
340
0
 70
0
280
1
281
0
  0
ENDTAB
  0
ENDSEC
  0
SECTION
  2
BLOCKS
  0
BLOCK
  5
18
330
17
100
AcDbEntity
  8
0
100
AcDbBlockBegin
  2
*Model_Space
 70
0
 10
0.0
 20
0.0
 30
0.0
  3
*Model_Space
  1

  0
ENDBLK
  5
19
330
17
100
AcDbEntity
  8
0
100
AcDbBlockEnd
  0
BLOCK
  5
1C
330
1B
100
AcDbEntity
  8
0
100
AcDbBlockBegin
  2
*Paper_Space
 70
0
 10
0.0
 20
0.0
 30
0.0
  3
*Paper_Space
  1

  0
ENDBLK
  5
1D
330
1B
100
AcDbEntity
  8
0
100
AcDbBlockEnd
  0
BLOCK
  5
75
330
74
100
AcDbEntity
  8
0
100
AcDbBlockBegin
  2
_ARCHTICK
 70
0
 10
0.0
 20
0.0
 30
0.0
  3
_ARCHTICK
  1

  0
LWPOLYLINE
  5
77
330
74
100
AcDbEntity
  8
0
  6
BYBLOCK
 62
0
100
AcDbPolyline
 90
2
 70
0
 43
0.15
 10
-0.5
 20
-0.5
 10
0.5
 20
0.5
  0
ENDBLK
  5
76
330
74
100
AcDbEntity
  8
0
100
AcDbBlockEnd
  0
BLOCK
  5
79
330
78
100
AcDbEntity
  8
0
100
AcDbBlockBegin
  2
_CLOSEDFILLED
 70
0
 10
0.0
 20
0.0
 30
0.0
  3
_CLOSEDFILLED
  1

  0
SOLID
  5
7B
330
78
100
AcDbEntity
  8
0
  6
BYBLOCK
 62
0
100
AcDbTrace
 10
-1.0
 20
0.16439898372402537
 30
0.0
 11
0.0
 21
0.0
 31
0.0
 12
-1.0
 22
-0.16439898372402537
 32
0.0
 13
-1.0
 23
-0.16439898372402537
 33
0.0
  0
ENDBLK
  5
7A
330
78
100
AcDbEntity
  8
0
100
AcDbBlockEnd
  0
BLOCK
  5
85
330
84
100
AcDbEntity
  8
0
100
AcDbBlockBegin
  2
_CLOSEDBLANK
 70
0
 10
0.0
 20
0.0
 30
0.0
  3
_CLOSEDBLANK
  1

  0
LWPOLYLINE
  5
87
330
84
100
AcDbEntity
  8
0
  6
BYBLOCK
 62
0
100
AcDbPolyline
 90
3
 70
1
 10
-1.0
 20
0.16439898372402537
 10
0.0
 20
0.0
 10
-1.0
 20
-0.16439898372402537
  0
ENDBLK
  5
86
330
84
100
AcDbEntity
  8
0
100
AcDbBlockEnd
  0
ENDSEC
  0
SECTION
  2
ENTITIES
  0
LINE
  5
95
330
17
100
AcDbEntity
  8
AGUA
100
AcDbLine
 10
157.63332790798611
 20
199.31667751736111
 30
0.0
 11
170.21665785047745
 21
199.2833455403646
 31
0.0
  0
POINT
  5
96
330
17
100
AcDbEntity
  8
VERTICES
100
AcDbPoint
 10
157.63332790798611
 20
199.31667751736111
 30
0.0
  0
POINT
  5
97
330
17
100
AcDbEntity
  8
VERTICES
100
AcDbPoint
 10
170.21665785047745
 20
199.2833455403646
 30
0.0
  0
LINE
  5
98
330
17
100
AcDbEntity
  8
AGUA
100
AcDbLine
 10
52.2833251953125
 20
195.18334282769098
 30
0.0
 11
70.28332604302301
 21
195.11667887369794
 31
0.0
  0
POINT
  5
99
330
17
100
AcDbEntity
  8
VERTICES
100
AcDbPoint
 10
52.2833251953125
 20
195.18334282769098
 30
0.0
  0
POINT
  5
9A
330
17
100
AcDbEntity
  8
VERTICES
100
AcDbPoint
 10
70.28332604302301
 20
195.11667887369794
 30
0.0
  0
LINE
  5
9B
330
17
100
AcDbEntity
  8
AGUA
100
AcDbLine
 10
92.2833251953125
 20
195.05001491970486
 30
0.0
 11
107.0333268907335
 21
195.00001695421008
 31
0.0
  0
POINT
  5
9C
330
17
100
AcDbEntity
  8
VERTICES
100
AcDbPoint
 10
92.2833251953125
 20
195.05001491970486
 30
0.0
  0
POINT
  5
9D
330
17
100
AcDbEntity
  8
VERTICES
100
AcDbPoint
 10
107.0333268907335
 20
195.00001695421008
 30
0.0
  0
LINE
  5
9E
330
17
100
AcDbEntity
  8
AGUA
100
AcDbLine
 10
132.8333282470703
 20
128.38333129882812
 30
0.0
 11
132.89999220106338
 21
142.13333129882812
 31
0.0
  0
POINT
  5
9F
330
17
100
AcDbEntity
  8
VERTICES
100
AcDbPoint
 10
132.8333282470703
 20
128.38333129882812
 30
0.0
  0
POINT
  5
A0
330
17
100
AcDbEntity
  8
VERTICES
100
AcDbPoint
 10
132.89999220106338
 20
142.13333129882812
 30
0.0
  0
LINE
  5
A1
330
17
100
AcDbEntity
  8
AGUA
100
AcDbLine
 10
118.66663614908855
 20
128.3666483561198
 30
0.0
 11
125.94998677571616
 21
127.41667005750868
 31
0.0
  0
POINT
  5
A2
330
17
100
AcDbEntity
  8
VERTICES
100
AcDbPoint
 10
118.66663614908855
 20
128.3666483561198
 30
0.0
  0
POINT
  5
A3
330
17
100
AcDbEntity
  8
VERTICES
100
AcDbPoint
 10
125.94998677571616
 20
127.41667005750868
 30
0.0
  0
LINE
  5
A4
330
17
100
AcDbEntity
  8
AGUA
100
AcDbLine
 10
115.96667819552952
 20
134.69997829861111
 30
0.0
 11
116.1166720920139
 21
189.84998914930557
 31
0.0
  0
POINT
  5
A5
330
17
100
AcDbEntity
  8
VERTICES
100
AcDbPoint
 10
115.96667819552952
 20
134.69997829861111
 30
0.0
  0
POINT
  5
A6
330
17
100
AcDbEntity
  8
VERTICES
100
AcDbPoint
 10
116.1166720920139
 20
189.84998914930557
 30
0.0
  0
LINE
  5
A7
330
17
100
AcDbEntity
  8
AGUA
100
AcDbLine
 10
116.15000406901042
 20
206.78331163194446
 30
0.0
 11
116.18333604600694
 21
219.11665174696182
 31
0.0
  0
POINT
  5
A8
330
17
100
AcDbEntity
  8
VERTICES
100
AcDbPoint
 10
116.15000406901042
 20
206.78331163194446
 30
0.0
  0
POINT
  5
A9
330
17
100
AcDbEntity
  8
VERTICES
100
AcDbPoint
 10
116.18333604600694
 20
219.11665174696182
 30
0.0
  0
LINE
  5
AA
330
17
100
AcDbEntity
  8
AGUA
100
AcDbLine
 10
113.51666768391928
 20
129.95000203450522
 30
0.0
 11
116.03333367241754
 21
127.45000203450522
 31
0.0
  0
POINT
  5
AB
330
17
100
AcDbEntity
  8
VERTICES
100
AcDbPoint
 10
113.51666768391928
 20
129.95000203450522
 30
0.0
  0
POINT
  5
AC
330
17
100
AcDbEntity
  8
VERTICES
100
AcDbPoint
 10
116.03333367241754
 20
127.45000203450522
 30
0.0
  0
LINE
  5
AD
330
17
100
AcDbEntity
  8
AGUA
100
AcDbLine
 10
125.95000372992622
 20
127.41667005750868
 30
0.0
 11
128.4666697184245
 21
129.9166700575087
 31
0.0
  0
POINT
  5
AE
330
17
100
AcDbEntity
  8
VERTICES
100
AcDbPoint
 10
125.95000372992622
 20
127.41667005750868
 30
0.0
  0
POINT
  5
AF
330
17
100
AcDbEntity
  8
VERTICES
100
AcDbPoint
 10
128.4666697184245
 20
129.9166700575087
 30
0.0
  0
LINE
  5
B0
330
17
100
AcDbEntity
  8
AGUA
100
AcDbLine
 10
117.70000881618924
 20
127.0999993218316
 30
0.0
 11
117.70000881618924
 21
127.749998304579
 31
0.0
  0
POINT
  5
B1
330
17
100
AcDbEntity
  8
VERTICES
100
AcDbPoint
 10
117.70000881618924
 20
127.0999993218316
 30
0.0
  0
POINT
  5
B2
330
17
100
AcDbEntity
  8
VERTICES
100
AcDbPoint
 10
117.70000881618924
 20
127.749998304579
 30
0.0
  0
LINE
  5
B3
330
17
100
AcDbEntity
  8
AGUA
100
AcDbLine
 10
94.93334452311198
 20
119.23333909776476
 30
0.0
 11
94.95001051161024
 21
127.7666727701823
 31
0.0
  0
POINT
  5
B4
330
17
100
AcDbEntity
  8
VERTICES
100
AcDbPoint
 10
94.93334452311198
 20
119.23333909776476
 30
0.0
  0
POINT
  5
B5
330
17
100
AcDbEntity
  8
VERTICES
100
AcDbPoint
 10
94.95001051161024
 20
127.7666727701823
 30
0.0
  0
LINE
  5
B6
330
17
100
AcDbEntity
  8
AGUA
100
AcDbLine
 10
94.91667005750868
 20
114.76661682128906
 30
0.0
 11
94.93333604600694
 21
119.23327975802952
 31
0.0
  0
POINT
  5
B7
330
17
100
AcDbEntity
  8
VERTICES
100
AcDbPoint
 10
94.91667005750868
 20
114.76661682128906
 30
0.0
  0
POINT
  5
B8
330
17
100
AcDbEntity
  8
VERTICES
100
AcDbPoint
 10
94.93333604600694
 20
119.23327975802952
 30
0.0
  0
LINE
  5
B9
330
17
100
AcDbEntity
  8
AGUA
100
AcDbLine
 10
111.88334147135417
 20
192.48333401150174
 30
0.0
 11
117.25001017252605
 21
192.46666802300348
 31
0.0
  0
POINT
  5
BA
330
17
100
AcDbEntity
  8
VERTICES
100
AcDbPoint
 10
111.88334147135417
 20
192.48333401150174
 30
0.0
  0
POINT
  5
BB
330
17
100
AcDbEntity
  8
VERTICES
100
AcDbPoint
 10
117.25001017252605
 20
192.46666802300348
 30
0.0
  0
LINE
  5
BC
330
17
100
AcDbEntity
  8
AGUA
100
AcDbLine
 10
118.45001220703125
 20
192.46666802300348
 30
0.0
 11
123.55000813802084
 21
192.45000203450522
 31
0.0
  0
POINT
  5
BD
330
17
100
AcDbEntity
  8
VERTICES
100
AcDbPoint
 10
118.45001220703125
 20
192.46666802300348
 30
0.0
  0
POINT
  5
BE
330
17
100
AcDbEntity
  8
VERTICES
100
AcDbPoint
 10
123.55000813802084
 20
192.45000203450522
 30
0.0
  0
LINE
  5
BF
330
17
100
AcDbEntity
  8
AGUA
100
AcDbLine
 10
109.36668395996094
 20
194.98333401150174
 30
0.0
 11
111.88334994845921
 21
192.48333401150174
 31
0.0
  0
POINT
  5
C0
330
17
100
AcDbEntity
  8
VERTICES
100
AcDbPoint
 10
109.36668395996094
 20
194.98333401150174
 30
0.0
  0
POINT
  5
C1
330
17
100
AcDbEntity
  8
VERTICES
100
AcDbPoint
 10
111.88334994845921
 20
192.48333401150174
 30
0.0
  0
LINE
  5
C2
330
17
100
AcDbEntity
  8
AGUA
100
AcDbLine
 10
123.55001661512587
 20
192.45000203450522
 30
0.0
 11
126.05001661512587
 21
194.95000203450522
 31
0.0
  0
POINT
  5
C3
330
17
100
AcDbEntity
  8
VERTICES
100
AcDbPoint
 10
123.55001661512587
 20
192.45000203450522
 30
0.0
  0
POINT
  5
C4
330
17
100
AcDbEntity
  8
VERTICES
100
AcDbPoint
 10
126.05001661512587
 20
194.95000203450522
 30
0.0
  0
LINE
  5
C5
330
17
100
AcDbEntity
  8
AGUA
100
AcDbLine
 10
120.566652086046
 20
128.83332994249133
 30
0.0
 11
122.83331976996529
 21
107.13333129882812
 31
0.0
  0
POINT
  5
C6
330
17
100
AcDbEntity
  8
VERTICES
100
AcDbPoint
 10
120.566652086046
 20
128.83332994249133
 30
0.0
  0
POINT
  5
C7
330
17
100
AcDbEntity
  8
VERTICES
100
AcDbPoint
 10
122.83331976996529
 20
107.13333129882812
 30
0.0
  0
LINE
  5
C8
330
17
100
AcDbEntity
  8
AGUA
100
AcDbLine
 10
97.63332790798611
 20
197.25001017252606
 30
0.0
 11
97.64999389648438
 21
204.13335164388022
 31
0.0
  0
POINT
  5
C9
330
17
100
AcDbEntity
  8
VERTICES
100
AcDbPoint
 10
97.63332790798611
 20
197.25001017252606
 30
0.0
  0
POINT
  5
CA
330
17
100
AcDbEntity
  8
VERTICES
100
AcDbPoint
 10
97.64999389648438
 20
204.13335164388022
 30
0.0
  0
LINE
  5
CB
330
17
100
AcDbEntity
  8
AGUA
100
AcDbLine
 10
275.13334486219617
 20
194.566650390625
 30
0.0
 11
276.6500176323785
 21
194.566650390625
 31
0.0
  0
POINT
  5
CC
330
17
100
AcDbEntity
  8
VERTICES
100
AcDbPoint
 10
275.13334486219617
 20
194.566650390625
 30
0.0
  0
POINT
  5
CD
330
17
100
AcDbEntity
  8
VERTICES
100
AcDbPoint
 10
276.6500176323785
 20
194.566650390625
 30
0.0
  0
LINE
  5
CE
330
17
100
AcDbEntity
  8
AGUA
100
AcDbLine
 10
97.61667887369792
 20
197.33328925238717
 30
0.0
 11
97.65001085069444
 21
211.7332967122396
 31
0.0
  0
POINT
  5
CF
330
17
100
AcDbEntity
  8
VERTICES
100
AcDbPoint
 10
97.61667887369792
 20
197.33328925238717
 30
0.0
  0
POINT
  5
D0
330
17
100
AcDbEntity
  8
VERTICES
100
AcDbPoint
 10
97.65001085069444
 20
211.7332967122396
 30
0.0
  0
LINE
  5
D1
330
17
100
AcDbEntity
  8
AGUA
100
AcDbLine
 10
97.65000237358942
 20
211.7332797580295
 30
0.0
 11
97.66666836208768
 21
216.21661716037326
 31
0.0
  0
POINT
  5
D2
330
17
100
AcDbEntity
  8
VERTICES
100
AcDbPoint
 10
97.65000237358942
 20
211.7332797580295
 30
0.0
  0
POINT
  5
D3
330
17
100
AcDbEntity
  8
VERTICES
100
AcDbPoint
 10
97.66666836208768
 20
216.21661716037326
 30
0.0
  0
LINE
  5
D4
330
17
100
AcDbEntity
  8
AGUA
100
AcDbLine
 10
170.2166748046875
 20
199.2833455403646
 30
0.0
 11
262.0500013563368
 21
198.9666748046875
 31
0.0
  0
POINT
  5
D5
330
17
100
AcDbEntity
  8
VERTICES
100
AcDbPoint
 10
170.2166748046875
 20
199.2833455403646
 30
0.0
  0
POINT
  5
D6
330
17
100
AcDbEntity
  8
VERTICES
100
AcDbPoint
 10
262.0500013563368
 20
198.9666748046875
 30
0.0
  0
LINE
  5
D7
330
17
100
AcDbEntity
  8
AGUA
100
AcDbLine
 10
127.45000203450522
 20
128.4166463216146
 30
0.0
 11
133.01666259765625
 21
129.9166700575087
 31
0.0
  0
POINT
  5
D8
330
17
100
AcDbEntity
  8
VERTICES
100
AcDbPoint
 10
127.45000203450522
 20
128.4166463216146
 30
0.0
  0
POINT
  5
D9
330
17
100
AcDbEntity
  8
VERTICES
100
AcDbPoint
 10
133.01666259765625
 20
129.9166700575087
 30
0.0
  0
LINE
  5
DA
330
17
100
AcDbEntity
  8
AGUA
100
AcDbLine
 10
134.05000474717883
 20
162.16666327582465
 30
0.0
 11
134.20000712076825
 21
161.38332790798611
 31
0.0
  0
POINT
  5
DB
330
17
100
AcDbEntity
  8
VERTICES
100
AcDbPoint
 10
134.05000474717883
 20
162.16666327582465
 30
0.0
  0
POINT
  5
DC
330
17
100
AcDbEntity
  8
VERTICES
100
AcDbPoint
 10
134.20000712076825
 20
161.38332790798611
 30
0.0
  0
LINE
  5
DD
330
17
100
AcDbEntity
  8
AGUA
100
AcDbLine
 10
117.29997422960069
 20
134.21666463216147
 30
0.0
 11
118.41663784450955
 21
134.03333028157553
 31
0.0
  0
POINT
  5
DE
330
17
100
AcDbEntity
  8
VERTICES
100
AcDbPoint
 10
117.29997422960069
 20
134.21666463216147
 30
0.0
  0
POINT
  5
DF
330
17
100
AcDbEntity
  8
VERTICES
100
AcDbPoint
 10
118.41663784450955
 20
134.03333028157553
 30
0.0
  0
LINE
  5
E0
330
17
100
AcDbEntity
  8
AGUA
100
AcDbLine
 10
116.83332655164931
 20
172.0999993218316
 30
0.0
 11
117.066650390625
 21
128.3499993218316
 31
0.0
  0
POINT
  5
E1
330
17
100
AcDbEntity
  8
VERTICES
100
AcDbPoint
 10
116.83332655164931
 20
172.0999993218316
 30
0.0
  0
POINT
  5
E2
330
17
100
AcDbEntity
  8
VERTICES
100
AcDbPoint
 10
117.066650390625
 20
128.3499993218316
 30
0.0
  0
LINE
  5
E3
330
17
100
AcDbEntity
  8
AGUA
100
AcDbLine
 10
114.58329094780817
 20
134.81666564941406
 30
0.0
 11
115.19995795355904
 21
134.38333299424914
 31
0.0
  0
POINT
  5
E4
330
17
100
AcDbEntity
  8
VERTICES
100
AcDbPoint
 10
114.58329094780817
 20
134.81666564941406
 30
0.0
  0
POINT
  5
E5
330
17
100
AcDbEntity
  8
VERTICES
100
AcDbPoint
 10
115.19995795355904
 20
134.38333299424914
 30
0.0
  0
LINE
  5
E7
330
17
100
AcDbEntity
  8
ALCANTARILLADO
100
AcDbLine
 10
228.250003390842
 20
160.0499979654948
 30
0.0
 11
251.53333875868057
 21
160.0
 31
0.0
  0
POINT
  5
E8
330
17
100
AcDbEntity
  8
VERTICES
100
AcDbPoint
 10
228.250003390842
 20
160.0499979654948
 30
0.0
  0
POINT
  5
E9
330
17
100
AcDbEntity
  8
VERTICES
100
AcDbPoint
 10
251.53333875868057
 20
160.0
 30
0.0
  0
LINE
  5
EA
330
17
100
AcDbEntity
  8
AGUA
100
AcDbLine
 10
251.39999389648438
 20
196.11667209201389
 30
0.0
 11
251.39999389648438
 21
246.1666700575087
 31
0.0
  0
POINT
  5
EB
330
17
100
AcDbEntity
  8
VERTICES
100
AcDbPoint
 10
251.39999389648438
 20
196.11667209201389
 30
0.0
  0
POINT
  5
EC
330
17
100
AcDbEntity
  8
VERTICES
100
AcDbPoint
 10
251.39999389648438
 20
246.1666700575087
 30
0.0
  0
LINE
  5
EE
330
17
100
AcDbEntity
  8
GAS
100
AcDbLine
 10
256.53333875868054
 20
243.46664428710938
 30
0.0
 11
256.55000474717883
 21
202.48331705729169
 31
0.0
  0
POINT
  5
EF
330
17
100
AcDbEntity
  8
VERTICES
100
AcDbPoint
 10
256.53333875868054
 20
243.46664428710938
 30
0.0
  0
POINT
  5
F0
330
17
100
AcDbEntity
  8
VERTICES
100
AcDbPoint
 10
256.55000474717883
 20
202.48331705729169
 30
0.0
  0
LINE
  5
F1
330
17
100
AcDbEntity
  8
GAS
100
AcDbLine
 10
261.41665988498266
 20
198.94999186197919
 30
0.0
 11
261.4333258734809
 21
255.83333333333334
 31
0.0
  0
POINT
  5
F2
330
17
100
AcDbEntity
  8
VERTICES
100
AcDbPoint
 10
261.41665988498266
 20
198.94999186197919
 30
0.0
  0
POINT
  5
F3
330
17
100
AcDbEntity
  8
VERTICES
100
AcDbPoint
 10
261.4333258734809
 20
255.83333333333334
 30
0.0
  0
LINE
  5
F4
330
17
100
AcDbEntity
  8
GAS
100
AcDbLine
 10
54.65001424153646
 20
86.11667209201389
 30
0.0
 11
54.66668023003472
 21
146.0666741265191
 31
0.0
  0
POINT
  5
F5
330
17
100
AcDbEntity
  8
VERTICES
100
AcDbPoint
 10
54.65001424153646
 20
86.11667209201389
 30
0.0
  0
POINT
  5
F6
330
17
100
AcDbEntity
  8
VERTICES
100
AcDbPoint
 10
54.66668023003472
 20
146.0666741265191
 30
0.0
  0
LINE
  5
F7
330
17
100
AcDbEntity
  8
AGUA
100
AcDbLine
 10
129.13333468967014
 20
196.65000067816842
 30
0.0
 11
130.249998304579
 21
196.65000067816842
 31
0.0
  0
POINT
  5
F8
330
17
100
AcDbEntity
  8
VERTICES
100
AcDbPoint
 10
129.13333468967014
 20
196.65000067816842
 30
0.0
  0
POINT
  5
F9
330
17
100
AcDbEntity
  8
VERTICES
100
AcDbPoint
 10
130.249998304579
 20
196.65000067816842
 30
0.0
  0
LINE
  5
FA
330
17
100
AcDbEntity
  8
AGUA
100
AcDbLine
 10
134.73332722981772
 20
178.50001017252606
 30
0.0
 11
134.73332722981772
 21
179.48333740234375
 31
0.0
  0
POINT
  5
FB
330
17
100
AcDbEntity
  8
VERTICES
100
AcDbPoint
 10
134.73332722981772
 20
178.50001017252606
 30
0.0
  0
POINT
  5
FC
330
17
100
AcDbEntity
  8
VERTICES
100
AcDbPoint
 10
134.73332722981772
 20
179.48333740234375
 30
0.0
  0
LINE
  5
FD
330
17
100
AcDbEntity
  8
AGUA
100
AcDbLine
 10
246.86665852864584
 20
186.53333875868057
 30
0.0
 11
246.91665649414062
 21
248.36666531032986
 31
0.0
  0
POINT
  5
FE
330
17
100
AcDbEntity
  8
VERTICES
100
AcDbPoint
 10
246.86665852864584
 20
186.53333875868057
 30
0.0
  0
POINT
  5
FF
330
17
100
AcDbEntity
  8
VERTICES
100
AcDbPoint
 10
246.91665649414062
 20
248.36666531032986
 30
0.0
  0
LINE
  5
100
330
17
100
AcDbEntity
  8
AGUA
100
AcDbLine
 10
100.33333672417535
 20
212.38333808051217
 30
0.0
 11
134.00000678168402
 21
190.33333672417535
 31
0.0
  0
POINT
  5
101
330
17
100
AcDbEntity
  8
VERTICES
100
AcDbPoint
 10
100.33333672417535
 20
212.38333808051217
 30
0.0
  0
POINT
  5
102
330
17
100
AcDbEntity
  8
VERTICES
100
AcDbPoint
 10
134.00000678168402
 20
190.33333672417535
 30
0.0
  0
LINE
  5
103
330
17
100
AcDbEntity
  8
AGUA
100
AcDbLine
 10
60.28332180447049
 20
81.58333672417535
 30
0.0
 11
60.33331976996528
 21
139.0666707356771
 31
0.0
  0
POINT
  5
104
330
17
100
AcDbEntity
  8
VERTICES
100
AcDbPoint
 10
60.28332180447049
 20
81.58333672417535
 30
0.0
  0
POINT
  5
105
330
17
100
AcDbEntity
  8
VERTICES
100
AcDbPoint
 10
60.33331976996528
 20
139.0666707356771
 30
0.0
  0
LINE
  5
106
330
17
100
AcDbEntity
  8
GAS
100
AcDbLine
 10
364.8666720920139
 20
16.383336385091148
 30
0.0
 11
364.8666720920139
 21
62.88333468967014
 31
0.0
  0
POINT
  5
107
330
17
100
AcDbEntity
  8
VERTICES
100
AcDbPoint
 10
364.8666720920139
 20
16.383336385091148
 30
0.0
  0
POINT
  5
108
330
17
100
AcDbEntity
  8
VERTICES
100
AcDbPoint
 10
364.8666720920139
 20
62.88333468967014
 30
0.0
  0
LINE
  5
109
330
17
100
AcDbEntity
  8
AGUA
100
AcDbLine
 10
115.13332790798611
 20
142.5
 30
0.0
 11
115.13332790798611
 21
144.500003390842
 31
0.0
  0
POINT
  5
10A
330
17
100
AcDbEntity
  8
VERTICES
100
AcDbPoint
 10
115.13332790798611
 20
142.5
 30
0.0
  0
POINT
  5
10B
330
17
100
AcDbEntity
  8
VERTICES
100
AcDbPoint
 10
115.13332790798611
 20
144.500003390842
 30
0.0
  0
LINE
  5
10C
330
17
100
AcDbEntity
  8
AGUA
100
AcDbLine
 10
134.55001831054688
 20
129.90000406901044
 30
0.0
 11
147.1333482530382
 21
127.01666937934029
 31
0.0
  0
POINT
  5
10D
330
17
100
AcDbEntity
  8
VERTICES
100
AcDbPoint
 10
134.55001831054688
 20
129.90000406901044
 30
0.0
  0
POINT
  5
10E
330
17
100
AcDbEntity
  8
VERTICES
100
AcDbPoint
 10
147.1333482530382
 20
127.01666937934029
 30
0.0
  0
LINE
  5
10F
330
17
100
AcDbEntity
  8
AGUA
100
AcDbLine
 10
148.33331637912326
 20
176.6500006781684
 30
0.0
 11
175.9166463216146
 21
176.6500006781684
 31
0.0
  0
POINT
  5
110
330
17
100
AcDbEntity
  8
VERTICES
100
AcDbPoint
 10
148.33331637912326
 20
176.6500006781684
 30
0.0
  0
POINT
  5
111
330
17
100
AcDbEntity
  8
VERTICES
100
AcDbPoint
 10
175.9166463216146
 20
176.6500006781684
 30
0.0
  0
LINE
  5
112
330
17
100
AcDbEntity
  8
AGUA
100
AcDbLine
 10
364.8666720920139
 20
52.850002712673614
 30
0.0
 11
423.45001220703125
 21
52.850002712673614
 31
0.0
  0
POINT
  5
113
330
17
100
AcDbEntity
  8
VERTICES
100
AcDbPoint
 10
364.8666720920139
 20
52.850002712673614
 30
0.0
  0
POINT
  5
114
330
17
100
AcDbEntity
  8
VERTICES
100
AcDbPoint
 10
423.45001220703125
 20
52.850002712673614
 30
0.0
  0
LINE
  5
115
330
17
100
AcDbEntity
  8
AGUA
100
AcDbLine
 10
322.08333333333337
 20
62.88333468967014
 30
0.0
 11
423.45001220703125
 21
62.88333468967014
 31
0.0
  0
POINT
  5
116
330
17
100
AcDbEntity
  8
VERTICES
100
AcDbPoint
 10
322.08333333333337
 20
62.88333468967014
 30
0.0
  0
POINT
  5
117
330
17
100
AcDbEntity
  8
VERTICES
100
AcDbPoint
 10
423.45001220703125
 20
62.88333468967014
 30
0.0
  0
LINE
  5
119
330
17
100
AcDbEntity
  8
DRENAJE
100
AcDbLine
 10
322.08333333333337
 20
59.016672770182296
 30
0.0
 11
364.8666720920139
 21
59.016672770182296
 31
0.0
  0
POINT
  5
11A
330
17
100
AcDbEntity
  8
VERTICES
100
AcDbPoint
 10
322.08333333333337
 20
59.016672770182296
 30
0.0
  0
POINT
  5
11B
330
17
100
AcDbEntity
  8
VERTICES
100
AcDbPoint
 10
364.8666720920139
 20
59.016672770182296
 30
0.0
  0
LINE
  5
11C
330
17
100
AcDbEntity
  8
AGUA
100
AcDbLine
 10
364.8666720920139
 20
49.68332926432292
 30
0.0
 11
423.45001220703125
 21
49.68332926432292
 31
0.0
  0
POINT
  5
11D
330
17
100
AcDbEntity
  8
VERTICES
100
AcDbPoint
 10
364.8666720920139
 20
49.68332926432292
 30
0.0
  0
POINT
  5
11E
330
17
100
AcDbEntity
  8
VERTICES
100
AcDbPoint
 10
423.45001220703125
 20
49.68332926432292
 30
0.0
  0
LINE
  5
11F
330
17
100
AcDbEntity
  8
AGUA
100
AcDbLine
 10
364.8666720920139
 20
29.56666734483507
 30
0.0
 11
423.45001220703125
 21
29.56666734483507
 31
0.0
  0
POINT
  5
120
330
17
100
AcDbEntity
  8
VERTICES
100
AcDbPoint
 10
364.8666720920139
 20
29.56666734483507
 30
0.0
  0
POINT
  5
121
330
17
100
AcDbEntity
  8
VERTICES
100
AcDbPoint
 10
423.45001220703125
 20
29.56666734483507
 30
0.0
  0
LINE
  5
122
330
17
100
AcDbEntity
  8
AGUA
100
AcDbLine
 10
343.66665310329864
 20
254.6999952528212
 30
0.0
 11
385.98331027560766
 21
254.6999952528212
 31
0.0
  0
POINT
  5
123
330
17
100
AcDbEntity
  8
VERTICES
100
AcDbPoint
 10
343.66665310329864
 20
254.6999952528212
 30
0.0
  0
POINT
  5
124
330
17
100
AcDbEntity
  8
VERTICES
100
AcDbPoint
 10
385.98331027560766
 20
254.6999952528212
 30
0.0
  0
LWPOLYLINE
  5
125
330
17
100
AcDbEntity
  8
ALCANTARILLADO
100
AcDbPolyline
 90
3
 70
0
 10
90.63334147135417
 20
137.999996609158
 10
74.63333977593317
 20
138.08332655164932
 10
90.63334147135417
 20
137.9499986436632
  0
POINT
  5
126
330
17
100
AcDbEntity
  8
VERTICES
100
AcDbPoint
 10
90.63334147135417
 20
137.999996609158
 30
0.0
  0
POINT
  5
127
330
17
100
AcDbEntity
  8
VERTICES
100
AcDbPoint
 10
74.63333977593317
 20
138.08332655164932
 30
0.0
  0
POINT
  5
128
330
17
100
AcDbEntity
  8
VERTICES
100
AcDbPoint
 10
90.63334147135417
 20
137.9499986436632
 30
0.0
  0
LWPOLYLINE
  5
129
330
17
100
AcDbEntity
  8
AGUA
100
AcDbPolyline
 90
3
 70
0
 10
127.61667887369792
 20
192.933349609375
 10
127.70000881618924
 20
202.9833475748698
 10
127.56668090820312
 20
192.933349609375
  0
POINT
  5
12A
330
17
100
AcDbEntity
  8
VERTICES
100
AcDbPoint
 10
127.61667887369792
 20
192.933349609375
 30
0.0
  0
POINT
  5
12B
330
17
100
AcDbEntity
  8
VERTICES
100
AcDbPoint
 10
127.70000881618924
 20
202.9833475748698
 30
0.0
  0
POINT
  5
12C
330
17
100
AcDbEntity
  8
VERTICES
100
AcDbPoint
 10
127.56668090820312
 20
192.933349609375
 30
0.0
  0
LINE
  5
12D
330
17
100
AcDbEntity
  8
AGUA
100
AcDbLine
 10
299.95001898871527
 20
194.39999050564236
 30
0.0
 11
284.75002712673614
 21
194.44998847113717
 31
0.0
  0
POINT
  5
12E
330
17
100
AcDbEntity
  8
VERTICES
100
AcDbPoint
 10
299.95001898871527
 20
194.39999050564236
 30
0.0
  0
POINT
  5
12F
330
17
100
AcDbEntity
  8
VERTICES
100
AcDbPoint
 10
284.75002712673614
 20
194.44998847113717
 30
0.0
  0
LINE
  5
130
330
17
100
AcDbEntity
  8
AGUA
100
AcDbLine
 10
299.95001898871527
 20
130.86666531032986
 30
0.0
 11
157.46668497721356
 21
131.2999979654948
 31
0.0
  0
POINT
  5
131
330
17
100
AcDbEntity
  8
VERTICES
100
AcDbPoint
 10
299.95001898871527
 20
130.86666531032986
 30
0.0
  0
POINT
  5
132
330
17
100
AcDbEntity
  8
VERTICES
100
AcDbPoint
 10
157.46668497721356
 20
131.2999979654948
 30
0.0
  0
LWPOLYLINE
  5
133
330
17
100
AcDbEntity
  8
AGUA
100
AcDbPolyline
 90
4
 70
0
 10
51.0333251953125
 20
125.43333265516493
 10
97.44999355740018
 20
125.33333672417535
 10
97.44999355740018
 20
125.63333299424914
 10
51.0333251953125
 20
125.73332892523872
  0
POINT
  5
134
330
17
100
AcDbEntity
  8
VERTICES
100
AcDbPoint
 10
51.0333251953125
 20
125.43333265516493
 30
0.0
  0
POINT
  5
135
330
17
100
AcDbEntity
  8
VERTICES
100
AcDbPoint
 10
97.44999355740018
 20
125.33333672417535
 30
0.0
  0
POINT
  5
136
330
17
100
AcDbEntity
  8
VERTICES
100
AcDbPoint
 10
97.44999355740018
 20
125.63333299424914
 30
0.0
  0
POINT
  5
137
330
17
100
AcDbEntity
  8
VERTICES
100
AcDbPoint
 10
51.0333251953125
 20
125.73332892523872
 30
0.0
  0
LINE
  5
138
330
17
100
AcDbEntity
  8
AGUA
100
AcDbLine
 10
97.44998508029515
 20
131.4333258734809
 30
0.0
 11
51.033316718207466
 21
131.5333218044705
 31
0.0
  0
POINT
  5
139
330
17
100
AcDbEntity
  8
VERTICES
100
AcDbPoint
 10
97.44998508029515
 20
131.4333258734809
 30
0.0
  0
POINT
  5
13A
330
17
100
AcDbEntity
  8
VERTICES
100
AcDbPoint
 10
51.033316718207466
 20
131.5333218044705
 30
0.0
  0
LWPOLYLINE
  5
13B
330
17
100
AcDbEntity
  8
AGUA
100
AcDbPolyline
 90
4
 70
0
 10
130.86666531032986
 20
147.4166700575087
 10
138.50000169542102
 20
147.30000813802084
 10
138.50000169542102
 20
147.5
 10
130.86666531032986
 20
147.51666598849826
  0
POINT
  5
13C
330
17
100
AcDbEntity
  8
VERTICES
100
AcDbPoint
 10
130.86666531032986
 20
147.4166700575087
 30
0.0
  0
POINT
  5
13D
330
17
100
AcDbEntity
  8
VERTICES
100
AcDbPoint
 10
138.50000169542102
 20
147.30000813802084
 30
0.0
  0
POINT
  5
13E
330
17
100
AcDbEntity
  8
VERTICES
100
AcDbPoint
 10
138.50000169542102
 20
147.5
 30
0.0
  0
POINT
  5
13F
330
17
100
AcDbEntity
  8
VERTICES
100
AcDbPoint
 10
130.86666531032986
 20
147.51666598849826
 30
0.0
  0
LINE
  5
140
330
17
100
AcDbEntity
  8
AGUA
100
AcDbLine
 10
60.74998643663195
 20
130.16665988498264
 30
0.0
 11
51.03332095675999
 21
130.1833258734809
 31
0.0
  0
POINT
  5
141
330
17
100
AcDbEntity
  8
VERTICES
100
AcDbPoint
 10
60.74998643663195
 20
130.16665988498264
 30
0.0
  0
POINT
  5
142
330
17
100
AcDbEntity
  8
VERTICES
100
AcDbPoint
 10
51.03332095675999
 20
130.1833258734809
 30
0.0
  0
LINE
  5
143
330
17
100
AcDbEntity
  8
AGUA
100
AcDbLine
 10
60.74998643663195
 20
129.96666802300348
 30
0.0
 11
51.03332095675999
 21
129.98333401150174
 31
0.0
  0
POINT
  5
144
330
17
100
AcDbEntity
  8
VERTICES
100
AcDbPoint
 10
60.74998643663195
 20
129.96666802300348
 30
0.0
  0
POINT
  5
145
330
17
100
AcDbEntity
  8
VERTICES
100
AcDbPoint
 10
51.03332095675999
 20
129.98333401150174
 30
0.0
  0
LWPOLYLINE
  5
146
330
17
100
AcDbEntity
  8
AGUA
100
AcDbPolyline
 90
3
 70
0
 10
82.76665581597223
 20
130.01666598849826
 10
94.96665106879341
 20
130.0
 10
113.51665920681424
 20
129.95000203450522
  0
POINT
  5
147
330
17
100
AcDbEntity
  8
VERTICES
100
AcDbPoint
 10
82.76665581597223
 20
130.01666598849826
 30
0.0
  0
POINT
  5
148
330
17
100
AcDbEntity
  8
VERTICES
100
AcDbPoint
 10
94.96665106879341
 20
130.0
 30
0.0
  0
POINT
  5
149
330
17
100
AcDbEntity
  8
VERTICES
100
AcDbPoint
 10
113.51665920681424
 20
129.95000203450522
 30
0.0
  0
LWPOLYLINE
  5
14A
330
17
100
AcDbEntity
  8
AGUA
100
AcDbPolyline
 90
3
 70
0
 10
116.15000406901042
 20
204.7833251953125
 10
116.1166720920139
 20
192.46665106879342
 10
116.1166720920139
 20
191.04999118381076
  0
POINT
  5
14B
330
17
100
AcDbEntity
  8
VERTICES
100
AcDbPoint
 10
116.15000406901042
 20
204.7833251953125
 30
0.0
  0
POINT
  5
14C
330
17
100
AcDbEntity
  8
VERTICES
100
AcDbPoint
 10
116.1166720920139
 20
192.46665106879342
 30
0.0
  0
POINT
  5
14D
330
17
100
AcDbEntity
  8
VERTICES
100
AcDbPoint
 10
116.1166720920139
 20
191.04999118381076
 30
0.0
  0
LINE
  5
14E
330
17
100
AcDbEntity
  8
AGUA
100
AcDbLine
 10
113.46666124131944
 20
115.44999864366319
 30
0.0
 11
113.36666531032986
 21
71.15000406901042
 31
0.0
  0
POINT
  5
14F
330
17
100
AcDbEntity
  8
VERTICES
100
AcDbPoint
 10
113.46666124131944
 20
115.44999864366319
 30
0.0
  0
POINT
  5
150
330
17
100
AcDbEntity
  8
VERTICES
100
AcDbPoint
 10
113.36666531032986
 20
71.15000406901042
 30
0.0
  0
LWPOLYLINE
  5
151
330
17
100
AcDbEntity
  8
AGUA
100
AcDbPolyline
 90
3
 70
0
 10
131.93332248263889
 20
103.16667344835069
 10
131.6833241780599
 20
103.16667344835069
 10
131.84999254014758
 20
71.15000406901042
  0
POINT
  5
152
330
17
100
AcDbEntity
  8
VERTICES
100
AcDbPoint
 10
131.93332248263889
 20
103.16667344835069
 30
0.0
  0
POINT
  5
153
330
17
100
AcDbEntity
  8
VERTICES
100
AcDbPoint
 10
131.6833241780599
 20
103.16667344835069
 30
0.0
  0
POINT
  5
154
330
17
100
AcDbEntity
  8
VERTICES
100
AcDbPoint
 10
131.84999254014758
 20
71.15000406901042
 30
0.0
  0
LWPOLYLINE
  5
155
330
17
100
AcDbEntity
  8
AGUA
100
AcDbPolyline
 90
6
 70
0
 10
136.58331976996527
 20
188.41666327582467
 10
136.58331976996527
 20
188.16665649414062
 10
299.94998508029516
 20
187.5999959309896
 10
299.94998508029516
 20
188.09999254014758
 10
136.58331976996527
 20
188.6666700575087
 10
136.58331976996527
 20
188.41666327582467
  0
POINT
  5
156
330
17
100
AcDbEntity
  8
VERTICES
100
AcDbPoint
 10
136.58331976996527
 20
188.41666327582467
 30
0.0
  0
POINT
  5
157
330
17
100
AcDbEntity
  8
VERTICES
100
AcDbPoint
 10
136.58331976996527
 20
188.16665649414062
 30
0.0
  0
POINT
  5
158
330
17
100
AcDbEntity
  8
VERTICES
100
AcDbPoint
 10
299.94998508029516
 20
187.5999959309896
 30
0.0
  0
POINT
  5
159
330
17
100
AcDbEntity
  8
VERTICES
100
AcDbPoint
 10
299.94998508029516
 20
188.09999254014758
 30
0.0
  0
POINT
  5
15A
330
17
100
AcDbEntity
  8
VERTICES
100
AcDbPoint
 10
136.58331976996527
 20
188.6666700575087
 30
0.0
  0
POINT
  5
15B
330
17
100
AcDbEntity
  8
VERTICES
100
AcDbPoint
 10
136.58331976996527
 20
188.41666327582467
 30
0.0
  0
LWPOLYLINE
  5
15C
330
17
100
AcDbEntity
  8
AGUA
100
AcDbPolyline
 90
40
 70
0
 10
97.66666836208768
 20
213.98328993055557
 10
99.90000406901042
 20
213.9666239420573
 10
99.8666720920139
 20
214.3666246202257
 10
99.76666768391928
 20
214.73329332139758
 10
99.5857640583482
 20
215.11013575312165
 10
99.36078308357133
 20
215.43058352337945
 10
99.09863024329147
 20
215.69529951032666
 10
98.80621102121141
 20
215.90494659211902
 10
98.49043090103402
 20
216.06018764691223
 10
98.15819536646208
 20
216.16168555286197
 10
97.81640990119841
 20
216.21010318812398
 10
97.47197998894586
 20
216.20610343085397
 10
97.13181111340722
 20
216.15034915920762
 10
96.80280875828531
 20
216.04350325134067
 10
96.49187840728297
 20
215.88622858540882
 10
96.205925544103
 20
215.67918803956775
 10
95.9518556524482
 20
215.4230444919732
 10
95.73657421602144
 20
215.11846082078088
 10
95.5669867185255
 20
214.76609990414647
 10
95.44999864366319
 20
214.3666246202257
 10
95.41666666666667
 20
213.98328993055557
 10
95.44999864366319
 20
213.59995524088544
 10
95.564193961521
 20
213.1969301857882
 10
95.73097947571013
 20
212.84157988097934
 10
95.94353147264984
 20
212.53448902318877
 10
96.19502623875937
 20
212.27624230914645
 10
96.47864006045792
 20
212.06742443558244
 10
96.78754922416475
 20
211.90862009922665
 10
97.1149300162991
 20
211.80041399680906
 10
97.45395872328017
 20
211.7433908250597
 10
97.79781163152721
 20
211.7381352807085
 10
98.13966502745947
 20
211.7852320604854
 10
98.47269519749615
 20
211.8852658611205
 10
98.7900784280565
 20
212.0388213793437
 10
99.08499100555977
 20
212.24648331188493
 10
99.35060921642516
 20
212.50883635547427
 10
99.58010934707191
 20
212.82646520684165
 10
99.76666768391928
 20
213.199954562717
 10
99.8666720920139
 20
213.58328925238717
 10
99.90000406901042
 20
213.9666239420573
  0
POINT
  5
15D
330
17
100
AcDbEntity
  8
VERTICES
100
AcDbPoint
 10
97.66666836208768
 20
213.98328993055557
 30
0.0
  0
POINT
  5
15E
330
17
100
AcDbEntity
  8
VERTICES
100
AcDbPoint
 10
99.90000406901042
 20
213.9666239420573
 30
0.0
  0
POINT
  5
15F
330
17
100
AcDbEntity
  8
VERTICES
100
AcDbPoint
 10
99.8666720920139
 20
214.3666246202257
 30
0.0
  0
POINT
  5
160
330
17
100
AcDbEntity
  8
VERTICES
100
AcDbPoint
 10
99.76666768391928
 20
214.73329332139758
 30
0.0
  0
POINT
  5
161
330
17
100
AcDbEntity
  8
VERTICES
100
AcDbPoint
 10
99.5857640583482
 20
215.11013575312165
 30
0.0
  0
POINT
  5
162
330
17
100
AcDbEntity
  8
VERTICES
100
AcDbPoint
 10
99.36078308357133
 20
215.43058352337945
 30
0.0
  0
POINT
  5
163
330
17
100
AcDbEntity
  8
VERTICES
100
AcDbPoint
 10
99.09863024329147
 20
215.69529951032666
 30
0.0
  0
POINT
  5
164
330
17
100
AcDbEntity
  8
VERTICES
100
AcDbPoint
 10
98.80621102121141
 20
215.90494659211902
 30
0.0
  0
POINT
  5
165
330
17
100
AcDbEntity
  8
VERTICES
100
AcDbPoint
 10
98.49043090103402
 20
216.06018764691223
 30
0.0
  0
POINT
  5
166
330
17
100
AcDbEntity
  8
VERTICES
100
AcDbPoint
 10
98.15819536646208
 20
216.16168555286197
 30
0.0
  0
POINT
  5
167
330
17
100
AcDbEntity
  8
VERTICES
100
AcDbPoint
 10
97.81640990119841
 20
216.21010318812398
 30
0.0
  0
POINT
  5
168
330
17
100
AcDbEntity
  8
VERTICES
100
AcDbPoint
 10
97.47197998894586
 20
216.20610343085397
 30
0.0
  0
POINT
  5
169
330
17
100
AcDbEntity
  8
VERTICES
100
AcDbPoint
 10
97.13181111340722
 20
216.15034915920762
 30
0.0
  0
POINT
  5
16A
330
17
100
AcDbEntity
  8
VERTICES
100
AcDbPoint
 10
96.80280875828531
 20
216.04350325134067
 30
0.0
  0
POINT
  5
16B
330
17
100
AcDbEntity
  8
VERTICES
100
AcDbPoint
 10
96.49187840728297
 20
215.88622858540882
 30
0.0
  0
POINT
  5
16C
330
17
100
AcDbEntity
  8
VERTICES
100
AcDbPoint
 10
96.205925544103
 20
215.67918803956775
 30
0.0
  0
POINT
  5
16D
330
17
100
AcDbEntity
  8
VERTICES
100
AcDbPoint
 10
95.9518556524482
 20
215.4230444919732
 30
0.0
  0
POINT
  5
16E
330
17
100
AcDbEntity
  8
VERTICES
100
AcDbPoint
 10
95.73657421602144
 20
215.11846082078088
 30
0.0
  0
POINT
  5
16F
330
17
100
AcDbEntity
  8
VERTICES
100
AcDbPoint
 10
95.5669867185255
 20
214.76609990414647
 30
0.0
  0
POINT
  5
170
330
17
100
AcDbEntity
  8
VERTICES
100
AcDbPoint
 10
95.44999864366319
 20
214.3666246202257
 30
0.0
  0
POINT
  5
171
330
17
100
AcDbEntity
  8
VERTICES
100
AcDbPoint
 10
95.41666666666667
 20
213.98328993055557
 30
0.0
  0
POINT
  5
172
330
17
100
AcDbEntity
  8
VERTICES
100
AcDbPoint
 10
95.44999864366319
 20
213.59995524088544
 30
0.0
  0
POINT
  5
173
330
17
100
AcDbEntity
  8
VERTICES
100
AcDbPoint
 10
95.564193961521
 20
213.1969301857882
 30
0.0
  0
POINT
  5
174
330
17
100
AcDbEntity
  8
VERTICES
100
AcDbPoint
 10
95.73097947571013
 20
212.84157988097934
 30
0.0
  0
POINT
  5
175
330
17
100
AcDbEntity
  8
VERTICES
100
AcDbPoint
 10
95.94353147264984
 20
212.53448902318877
 30
0.0
  0
POINT
  5
176
330
17
100
AcDbEntity
  8
VERTICES
100
AcDbPoint
 10
96.19502623875937
 20
212.27624230914645
 30
0.0
  0
POINT
  5
177
330
17
100
AcDbEntity
  8
VERTICES
100
AcDbPoint
 10
96.47864006045792
 20
212.06742443558244
 30
0.0
  0
POINT
  5
178
330
17
100
AcDbEntity
  8
VERTICES
100
AcDbPoint
 10
96.78754922416475
 20
211.90862009922665
 30
0.0
  0
POINT
  5
179
330
17
100
AcDbEntity
  8
VERTICES
100
AcDbPoint
 10
97.1149300162991
 20
211.80041399680906
 30
0.0
  0
POINT
  5
17A
330
17
100
AcDbEntity
  8
VERTICES
100
AcDbPoint
 10
97.45395872328017
 20
211.7433908250597
 30
0.0
  0
POINT
  5
17B
330
17
100
AcDbEntity
  8
VERTICES
100
AcDbPoint
 10
97.79781163152721
 20
211.7381352807085
 30
0.0
  0
POINT
  5
17C
330
17
100
AcDbEntity
  8
VERTICES
100
AcDbPoint
 10
98.13966502745947
 20
211.7852320604854
 30
0.0
  0
POINT
  5
17D
330
17
100
AcDbEntity
  8
VERTICES
100
AcDbPoint
 10
98.47269519749615
 20
211.8852658611205
 30
0.0
  0
POINT
  5
17E
330
17
100
AcDbEntity
  8
VERTICES
100
AcDbPoint
 10
98.7900784280565
 20
212.0388213793437
 30
0.0
  0
POINT
  5
17F
330
17
100
AcDbEntity
  8
VERTICES
100
AcDbPoint
 10
99.08499100555977
 20
212.24648331188493
 30
0.0
  0
POINT
  5
180
330
17
100
AcDbEntity
  8
VERTICES
100
AcDbPoint
 10
99.35060921642516
 20
212.50883635547427
 30
0.0
  0
POINT
  5
181
330
17
100
AcDbEntity
  8
VERTICES
100
AcDbPoint
 10
99.58010934707191
 20
212.82646520684165
 30
0.0
  0
POINT
  5
182
330
17
100
AcDbEntity
  8
VERTICES
100
AcDbPoint
 10
99.76666768391928
 20
213.199954562717
 30
0.0
  0
POINT
  5
183
330
17
100
AcDbEntity
  8
VERTICES
100
AcDbPoint
 10
99.8666720920139
 20
213.58328925238717
 30
0.0
  0
POINT
  5
184
330
17
100
AcDbEntity
  8
VERTICES
100
AcDbPoint
 10
99.90000406901042
 20
213.9666239420573
 30
0.0
  0
LWPOLYLINE
  5
185
330
17
100
AcDbEntity
  8
AGUA
100
AcDbPolyline
 90
40
 70
0
 10
94.93333604600694
 20
116.99995252821181
 10
92.68333435058594
 20
116.99995252821181
 10
92.71666632758247
 20
116.61661783854167
 10
92.81667073567709
 20
116.23328314887154
 10
92.99835536835923
 20
115.86210548670756
 10
93.22437794672119
 20
115.54592899150319
 10
93.4877548304697
 20
115.28422754050958
 10
93.78150237931146
 20
115.07647501097786
 10
94.09863695295321
 20
114.92214528015919
 10
94.43217491110167
 20
114.82071222530472
 10
94.77513261346354
 20
114.77164972366559
 10
95.12052641974556
 20
114.77443165249295
 10
95.46137268965444
 20
114.82853188903796
 10
95.7906877828969
 20
114.93342431055176
 10
96.10148805917966
 20
115.08858279428549
 10
96.38678987820944
 20
115.29348121749031
 10
96.63960959969296
 20
115.54759345741736
 10
96.85296358333694
 20
115.8503933913178
 10
97.01986818884811
 20
116.20135489644277
 10
97.13333977593317
 20
116.59995185004341
 10
97.16667175292969
 20
116.99995252821181
 10
97.13333977593317
 20
117.38328721788194
 10
97.02513246072664
 20
117.78176269804439
 10
96.86151636971368
 20
118.13332188460562
 10
96.64977787269487
 20
118.43731778156426
 10
96.39720333947076
 20
118.69310339291891
 10
96.11107913984193
 20
118.90003172266815
 10
95.79869164360895
 20
119.05745577481058
 10
95.46732722057237
 20
119.16472855334482
 10
95.12427224053278
 20
119.22120306226942
 10
94.77681307329073
 20
119.22623230558303
 10
94.43223608864679
 20
119.17916928728422
 10
94.09782765640153
 20
119.07936701137159
 10
93.78087414635553
 20
118.92617848184373
 10
93.48866192830934
 20
118.71895670269927
 10
93.22847737206354
 20
118.45705467793677
 10
93.00760684741869
 20
118.13982541155484
 10
92.83333672417535
 20
117.76662190755209
 10
92.71666632758247
 20
117.39995320638022
 10
92.68333435058594
 20
116.99995252821181
  0
POINT
  5
186
330
17
100
AcDbEntity
  8
VERTICES
100
AcDbPoint
 10
94.93333604600694
 20
116.99995252821181
 30
0.0
  0
POINT
  5
187
330
17
100
AcDbEntity
  8
VERTICES
100
AcDbPoint
 10
92.68333435058594
 20
116.99995252821181
 30
0.0
  0
POINT
  5
188
330
17
100
AcDbEntity
  8
VERTICES
100
AcDbPoint
 10
92.71666632758247
 20
116.61661783854167
 30
0.0
  0
POINT
  5
189
330
17
100
AcDbEntity
  8
VERTICES
100
AcDbPoint
 10
92.81667073567709
 20
116.23328314887154
 30
0.0
  0
POINT
  5
18A
330
17
100
AcDbEntity
  8
VERTICES
100
AcDbPoint
 10
92.99835536835923
 20
115.86210548670756
 30
0.0
  0
POINT
  5
18B
330
17
100
AcDbEntity
  8
VERTICES
100
AcDbPoint
 10
93.22437794672119
 20
115.54592899150319
 30
0.0
  0
POINT
  5
18C
330
17
100
AcDbEntity
  8
VERTICES
100
AcDbPoint
 10
93.4877548304697
 20
115.28422754050958
 30
0.0
  0
POINT
  5
18D
330
17
100
AcDbEntity
  8
VERTICES
100
AcDbPoint
 10
93.78150237931146
 20
115.07647501097786
 30
0.0
  0
POINT
  5
18E
330
17
100
AcDbEntity
  8
VERTICES
100
AcDbPoint
 10
94.09863695295321
 20
114.92214528015919
 30
0.0
  0
POINT
  5
18F
330
17
100
AcDbEntity
  8
VERTICES
100
AcDbPoint
 10
94.43217491110167
 20
114.82071222530472
 30
0.0
  0
POINT
  5
190
330
17
100
AcDbEntity
  8
VERTICES
100
AcDbPoint
 10
94.77513261346354
 20
114.77164972366559
 30
0.0
  0
POINT
  5
191
330
17
100
AcDbEntity
  8
VERTICES
100
AcDbPoint
 10
95.12052641974556
 20
114.77443165249295
 30
0.0
  0
POINT
  5
192
330
17
100
AcDbEntity
  8
VERTICES
100
AcDbPoint
 10
95.46137268965444
 20
114.82853188903796
 30
0.0
  0
POINT
  5
193
330
17
100
AcDbEntity
  8
VERTICES
100
AcDbPoint
 10
95.7906877828969
 20
114.93342431055176
 30
0.0
  0
POINT
  5
194
330
17
100
AcDbEntity
  8
VERTICES
100
AcDbPoint
 10
96.10148805917966
 20
115.08858279428549
 30
0.0
  0
POINT
  5
195
330
17
100
AcDbEntity
  8
VERTICES
100
AcDbPoint
 10
96.38678987820944
 20
115.29348121749031
 30
0.0
  0
POINT
  5
196
330
17
100
AcDbEntity
  8
VERTICES
100
AcDbPoint
 10
96.63960959969296
 20
115.54759345741736
 30
0.0
  0
POINT
  5
197
330
17
100
AcDbEntity
  8
VERTICES
100
AcDbPoint
 10
96.85296358333694
 20
115.8503933913178
 30
0.0
  0
POINT
  5
198
330
17
100
AcDbEntity
  8
VERTICES
100
AcDbPoint
 10
97.01986818884811
 20
116.20135489644277
 30
0.0
  0
POINT
  5
199
330
17
100
AcDbEntity
  8
VERTICES
100
AcDbPoint
 10
97.13333977593317
 20
116.59995185004341
 30
0.0
  0
POINT
  5
19A
330
17
100
AcDbEntity
  8
VERTICES
100
AcDbPoint
 10
97.16667175292969
 20
116.99995252821181
 30
0.0
  0
POINT
  5
19B
330
17
100
AcDbEntity
  8
VERTICES
100
AcDbPoint
 10
97.13333977593317
 20
117.38328721788194
 30
0.0
  0
POINT
  5
19C
330
17
100
AcDbEntity
  8
VERTICES
100
AcDbPoint
 10
97.02513246072664
 20
117.78176269804439
 30
0.0
  0
POINT
  5
19D
330
17
100
AcDbEntity
  8
VERTICES
100
AcDbPoint
 10
96.86151636971368
 20
118.13332188460562
 30
0.0
  0
POINT
  5
19E
330
17
100
AcDbEntity
  8
VERTICES
100
AcDbPoint
 10
96.64977787269487
 20
118.43731778156426
 30
0.0
  0
POINT
  5
19F
330
17
100
AcDbEntity
  8
VERTICES
100
AcDbPoint
 10
96.39720333947076
 20
118.69310339291891
 30
0.0
  0
POINT
  5
1A0
330
17
100
AcDbEntity
  8
VERTICES
100
AcDbPoint
 10
96.11107913984193
 20
118.90003172266815
 30
0.0
  0
POINT
  5
1A1
330
17
100
AcDbEntity
  8
VERTICES
100
AcDbPoint
 10
95.79869164360895
 20
119.05745577481058
 30
0.0
  0
POINT
  5
1A2
330
17
100
AcDbEntity
  8
VERTICES
100
AcDbPoint
 10
95.46732722057237
 20
119.16472855334482
 30
0.0
  0
POINT
  5
1A3
330
17
100
AcDbEntity
  8
VERTICES
100
AcDbPoint
 10
95.12427224053278
 20
119.22120306226942
 30
0.0
  0
POINT
  5
1A4
330
17
100
AcDbEntity
  8
VERTICES
100
AcDbPoint
 10
94.77681307329073
 20
119.22623230558303
 30
0.0
  0
POINT
  5
1A5
330
17
100
AcDbEntity
  8
VERTICES
100
AcDbPoint
 10
94.43223608864679
 20
119.17916928728422
 30
0.0
  0
POINT
  5
1A6
330
17
100
AcDbEntity
  8
VERTICES
100
AcDbPoint
 10
94.09782765640153
 20
119.07936701137159
 30
0.0
  0
POINT
  5
1A7
330
17
100
AcDbEntity
  8
VERTICES
100
AcDbPoint
 10
93.78087414635553
 20
118.92617848184373
 30
0.0
  0
POINT
  5
1A8
330
17
100
AcDbEntity
  8
VERTICES
100
AcDbPoint
 10
93.48866192830934
 20
118.71895670269927
 30
0.0
  0
POINT
  5
1A9
330
17
100
AcDbEntity
  8
VERTICES
100
AcDbPoint
 10
93.22847737206354
 20
118.45705467793677
 30
0.0
  0
POINT
  5
1AA
330
17
100
AcDbEntity
  8
VERTICES
100
AcDbPoint
 10
93.00760684741869
 20
118.13982541155484
 30
0.0
  0
POINT
  5
1AB
330
17
100
AcDbEntity
  8
VERTICES
100
AcDbPoint
 10
92.83333672417535
 20
117.76662190755209
 30
0.0
  0
POINT
  5
1AC
330
17
100
AcDbEntity
  8
VERTICES
100
AcDbPoint
 10
92.71666632758247
 20
117.39995320638022
 30
0.0
  0
POINT
  5
1AD
330
17
100
AcDbEntity
  8
VERTICES
100
AcDbPoint
 10
92.68333435058594
 20
116.99995252821181
 30
0.0
  0
LWPOLYLINE
  5
1AE
330
17
100
AcDbEntity
  8
AGUA
100
AcDbPolyline
 90
3
 70
0
 10
134.53331841362848
 20
107.01667785644531
 10
134.53331841362848
 20
106.16667853461372
 10
133.93331739637588
 20
105.58334350585938
  0
POINT
  5
1AF
330
17
100
AcDbEntity
  8
VERTICES
100
AcDbPoint
 10
134.53331841362848
 20
107.01667785644531
 30
0.0
  0
POINT
  5
1B0
330
17
100
AcDbEntity
  8
VERTICES
100
AcDbPoint
 10
134.53331841362848
 20
106.16667853461372
 30
0.0
  0
POINT
  5
1B1
330
17
100
AcDbEntity
  8
VERTICES
100
AcDbPoint
 10
133.93331739637588
 20
105.58334350585938
 30
0.0
  0
LWPOLYLINE
  5
1B2
330
17
100
AcDbEntity
  8
AGUA
100
AcDbPolyline
 90
5
 70
0
 10
135.96666124131946
 20
146.58333672417535
 10
135.96666124131946
 20
146.83334350585938
 10
133.16666497124567
 20
146.83334350585938
 10
133.16666497124567
 20
146.33332994249133
 10
135.96666124131946
 20
146.33332994249133
  0
POINT
  5
1B3
330
17
100
AcDbEntity
  8
VERTICES
100
AcDbPoint
 10
135.96666124131946
 20
146.58333672417535
 30
0.0
  0
POINT
  5
1B4
330
17
100
AcDbEntity
  8
VERTICES
100
AcDbPoint
 10
135.96666124131946
 20
146.83334350585938
 30
0.0
  0
POINT
  5
1B5
330
17
100
AcDbEntity
  8
VERTICES
100
AcDbPoint
 10
133.16666497124567
 20
146.83334350585938
 30
0.0
  0
POINT
  5
1B6
330
17
100
AcDbEntity
  8
VERTICES
100
AcDbPoint
 10
133.16666497124567
 20
146.33332994249133
 30
0.0
  0
POINT
  5
1B7
330
17
100
AcDbEntity
  8
VERTICES
100
AcDbPoint
 10
135.96666124131946
 20
146.33332994249133
 30
0.0
  0
LWPOLYLINE
  5
1B8
330
17
100
AcDbEntity
  8
AGUA
100
AcDbPolyline
 90
5
 70
0
 10
135.93332926432294
 20
111.56667073567709
 10
135.93332926432294
 20
111.81666904025609
 10
133.13333299424914
 20
111.81666904025609
 10
133.13333299424914
 20
111.3166724310981
 10
135.93332926432294
 20
111.3166724310981
  0
POINT
  5
1B9
330
17
100
AcDbEntity
  8
VERTICES
100
AcDbPoint
 10
135.93332926432294
 20
111.56667073567709
 30
0.0
  0
POINT
  5
1BA
330
17
100
AcDbEntity
  8
VERTICES
100
AcDbPoint
 10
135.93332926432294
 20
111.81666904025609
 30
0.0
  0
POINT
  5
1BB
330
17
100
AcDbEntity
  8
VERTICES
100
AcDbPoint
 10
133.13333299424914
 20
111.81666904025609
 30
0.0
  0
POINT
  5
1BC
330
17
100
AcDbEntity
  8
VERTICES
100
AcDbPoint
 10
133.13333299424914
 20
111.3166724310981
 30
0.0
  0
POINT
  5
1BD
330
17
100
AcDbEntity
  8
VERTICES
100
AcDbPoint
 10
135.93332926432294
 20
111.3166724310981
 30
0.0
  0
LWPOLYLINE
  5
1BE
330
17
100
AcDbEntity
  8
AGUA
100
AcDbPolyline
 90
4
 70
0
 10
51.0333251953125
 20
137.83333672417535
 10
134.54999287923178
 20
137.65000237358942
 10
134.54999287923178
 20
138.15000745985245
 10
51.0333251953125
 20
138.33333333333334
  0
POINT
  5
1BF
330
17
100
AcDbEntity
  8
VERTICES
100
AcDbPoint
 10
51.0333251953125
 20
137.83333672417535
 30
0.0
  0
POINT
  5
1C0
330
17
100
AcDbEntity
  8
VERTICES
100
AcDbPoint
 10
134.54999287923178
 20
137.65000237358942
 30
0.0
  0
POINT
  5
1C1
330
17
100
AcDbEntity
  8
VERTICES
100
AcDbPoint
 10
134.54999287923178
 20
138.15000745985245
 30
0.0
  0
POINT
  5
1C2
330
17
100
AcDbEntity
  8
VERTICES
100
AcDbPoint
 10
51.0333251953125
 20
138.33333333333334
 30
0.0
  0
LWPOLYLINE
  5
1C3
330
17
100
AcDbEntity
  8
ALCANTARILLADO
100
AcDbPolyline
 90
3
 70
0
 10
119.14998372395834
 20
185.7666693793403
 10
96.24998304578993
 20
191.45000881618924
 10
61.183319091796875
 20
191.45000881618924
  0
POINT
  5
1C4
330
17
100
AcDbEntity
  8
VERTICES
100
AcDbPoint
 10
119.14998372395834
 20
185.7666693793403
 30
0.0
  0
POINT
  5
1C5
330
17
100
AcDbEntity
  8
VERTICES
100
AcDbPoint
 10
96.24998304578993
 20
191.45000881618924
 30
0.0
  0
POINT
  5
1C6
330
17
100
AcDbEntity
  8
VERTICES
100
AcDbPoint
 10
61.183319091796875
 20
191.45000881618924
 30
0.0
  0
LWPOLYLINE
  5
1C7
330
17
100
AcDbEntity
  8
AGUA
100
AcDbPolyline
 90
3
 70
0
 10
115.35000271267361
 20
135.0
 10
100.30000474717882
 20
103.1499989827474
 10
64.73333570692274
 20
103.1499989827474
  0
POINT
  5
1C8
330
17
100
AcDbEntity
  8
VERTICES
100
AcDbPoint
 10
115.35000271267361
 20
135.0
 30
0.0
  0
POINT
  5
1C9
330
17
100
AcDbEntity
  8
VERTICES
100
AcDbPoint
 10
100.30000474717882
 20
103.1499989827474
 30
0.0
  0
POINT
  5
1CA
330
17
100
AcDbEntity
  8
VERTICES
100
AcDbPoint
 10
64.73333570692274
 20
103.1499989827474
 30
0.0
  0
LWPOLYLINE
  5
1CB
330
17
100
AcDbEntity
  8
GAS
100
AcDbPolyline
 90
3
 70
0
 10
146.09998914930557
 20
215.19999186197919
 10
163.6333211263021
 20
221.1333211263021
 10
194.33332655164932
 20
221.1333211263021
  0
POINT
  5
1CC
330
17
100
AcDbEntity
  8
VERTICES
100
AcDbPoint
 10
146.09998914930557
 20
215.19999186197919
 30
0.0
  0
POINT
  5
1CD
330
17
100
AcDbEntity
  8
VERTICES
100
AcDbPoint
 10
163.6333211263021
 20
221.1333211263021
 30
0.0
  0
POINT
  5
1CE
330
17
100
AcDbEntity
  8
VERTICES
100
AcDbPoint
 10
194.33332655164932
 20
221.1333211263021
 30
0.0
  0
LWPOLYLINE
  5
1CF
330
17
100
AcDbEntity
  8
ALCANTARILLADO
100
AcDbPolyline
 90
3
 70
0
 10
140.13332790798611
 20
219.45000542534723
 10
165.3166707356771
 20
226.90000745985245
 10
209.8833211263021
 20
226.90000745985245
  0
POINT
  5
1D0
330
17
100
AcDbEntity
  8
VERTICES
100
AcDbPoint
 10
140.13332790798611
 20
219.45000542534723
 30
0.0
  0
POINT
  5
1D1
330
17
100
AcDbEntity
  8
VERTICES
100
AcDbPoint
 10
165.3166707356771
 20
226.90000745985245
 30
0.0
  0
POINT
  5
1D2
330
17
100
AcDbEntity
  8
VERTICES
100
AcDbPoint
 10
209.8833211263021
 20
226.90000745985245
 30
0.0
  0
LWPOLYLINE
  5
1D3
330
17
100
AcDbEntity
  8
AGUA
100
AcDbPolyline
 90
3
 70
0
 10
251.65000067816842
 20
196.11667209201389
 10
251.39999389648438
 20
194.61666531032986
 10
251.15000406901044
 20
196.11667209201389
  0
POINT
  5
1D4
330
17
100
AcDbEntity
  8
VERTICES
100
AcDbPoint
 10
251.65000067816842
 20
196.11667209201389
 30
0.0
  0
POINT
  5
1D5
330
17
100
AcDbEntity
  8
VERTICES
100
AcDbPoint
 10
251.39999389648438
 20
194.61666531032986
 30
0.0
  0
POINT
  5
1D6
330
17
100
AcDbEntity
  8
VERTICES
100
AcDbPoint
 10
251.15000406901044
 20
196.11667209201389
 30
0.0
  0
LWPOLYLINE
  5
1D7
330
17
100
AcDbEntity
  8
AGUA
100
AcDbPolyline
 90
3
 70
0
 10
116.83332655164931
 20
80.56666056315105
 10
63.86666191948785
 20
80.56666056315105
 10
64.14999220106337
 20
80.56666056315105
  0
POINT
  5
1D8
330
17
100
AcDbEntity
  8
VERTICES
100
AcDbPoint
 10
116.83332655164931
 20
80.56666056315105
 30
0.0
  0
POINT
  5
1D9
330
17
100
AcDbEntity
  8
VERTICES
100
AcDbPoint
 10
63.86666191948785
 20
80.56666056315105
 30
0.0
  0
POINT
  5
1DA
330
17
100
AcDbEntity
  8
VERTICES
100
AcDbPoint
 10
64.14999220106337
 20
80.56666056315105
 30
0.0
  0
LWPOLYLINE
  5
1DB
330
17
100
AcDbEntity
  8
AGUA
100
AcDbPolyline
 90
3
 70
0
 10
130.15001085069446
 20
89.66666327582466
 10
79.30001152886285
 20
89.63333129882812
 10
67.75001102023654
 20
89.63333129882812
  0
POINT
  5
1DC
330
17
100
AcDbEntity
  8
VERTICES
100
AcDbPoint
 10
130.15001085069446
 20
89.66666327582466
 30
0.0
  0
POINT
  5
1DD
330
17
100
AcDbEntity
  8
VERTICES
100
AcDbPoint
 10
79.30001152886285
 20
89.63333129882812
 30
0.0
  0
POINT
  5
1DE
330
17
100
AcDbEntity
  8
VERTICES
100
AcDbPoint
 10
67.75001102023654
 20
89.63333129882812
 30
0.0
  0
LWPOLYLINE
  5
1DF
330
17
100
AcDbEntity
  8
ALCANTARILLADO
100
AcDbPolyline
 90
3
 70
0
 10
119.06667073567709
 20
239.31667751736111
 10
93.70000203450522
 20
237.06668429904514
 10
74.36667548285591
 20
237.06668429904514
  0
POINT
  5
1E0
330
17
100
AcDbEntity
  8
VERTICES
100
AcDbPoint
 10
119.06667073567709
 20
239.31667751736111
 30
0.0
  0
POINT
  5
1E1
330
17
100
AcDbEntity
  8
VERTICES
100
AcDbPoint
 10
93.70000203450522
 20
237.06668429904514
 30
0.0
  0
POINT
  5
1E2
330
17
100
AcDbEntity
  8
VERTICES
100
AcDbPoint
 10
74.36667548285591
 20
237.06668429904514
 30
0.0
  0
LWPOLYLINE
  5
1E3
330
17
100
AcDbEntity
  8
AGUA
100
AcDbPolyline
 90
3
 70
0
 10
101.4666748046875
 20
260.76666937934027
 10
99.16667514377171
 20
257.9000006781684
 10
89.16667514377171
 20
257.9000006781684
  0
POINT
  5
1E4
330
17
100
AcDbEntity
  8
VERTICES
100
AcDbPoint
 10
101.4666748046875
 20
260.76666937934027
 30
0.0
  0
POINT
  5
1E5
330
17
100
AcDbEntity
  8
VERTICES
100
AcDbPoint
 10
99.16667514377171
 20
257.9000006781684
 30
0.0
  0
POINT
  5
1E6
330
17
100
AcDbEntity
  8
VERTICES
100
AcDbPoint
 10
89.16667514377171
 20
257.9000006781684
 30
0.0
  0
LWPOLYLINE
  5
1E7
330
17
100
AcDbEntity
  8
AGUA
100
AcDbPolyline
 90
3
 70
0
 10
114.98331705729167
 20
259.14998372395837
 10
94.89998711480035
 20
276.79997762044275
 10
60.88331858317058
 20
276.79997762044275
  0
POINT
  5
1E8
330
17
100
AcDbEntity
  8
VERTICES
100
AcDbPoint
 10
114.98331705729167
 20
259.14998372395837
 30
0.0
  0
POINT
  5
1E9
330
17
100
AcDbEntity
  8
VERTICES
100
AcDbPoint
 10
94.89998711480035
 20
276.79997762044275
 30
0.0
  0
POINT
  5
1EA
330
17
100
AcDbEntity
  8
VERTICES
100
AcDbPoint
 10
60.88331858317058
 20
276.79997762044275
 30
0.0
  0
LWPOLYLINE
  5
1EB
330
17
100
AcDbEntity
  8
AGUA
100
AcDbPolyline
 90
3
 70
0
 10
263.55000813802087
 20
71.15000406901042
 10
262.25001017252606
 20
102.03333536783855
 10
238.90001085069446
 20
102.03333536783855
  0
POINT
  5
1EC
330
17
100
AcDbEntity
  8
VERTICES
100
AcDbPoint
 10
263.55000813802087
 20
71.15000406901042
 30
0.0
  0
POINT
  5
1ED
330
17
100
AcDbEntity
  8
VERTICES
100
AcDbPoint
 10
262.25001017252606
 20
102.03333536783855
 30
0.0
  0
POINT
  5
1EE
330
17
100
AcDbEntity
  8
VERTICES
100
AcDbPoint
 10
238.90001085069446
 20
102.03333536783855
 30
0.0
  0
LWPOLYLINE
  5
1EF
330
17
100
AcDbEntity
  8
AGUA
100
AcDbPolyline
 90
3
 70
0
 10
120.71665445963542
 20
115.33333672417535
 10
98.88331943088109
 20
97.5666724310981
 10
71.44999186197917
 20
97.5666724310981
  0
POINT
  5
1F0
330
17
100
AcDbEntity
  8
VERTICES
100
AcDbPoint
 10
120.71665445963542
 20
115.33333672417535
 30
0.0
  0
POINT
  5
1F1
330
17
100
AcDbEntity
  8
VERTICES
100
AcDbPoint
 10
98.88331943088109
 20
97.5666724310981
 30
0.0
  0
POINT
  5
1F2
330
17
100
AcDbEntity
  8
VERTICES
100
AcDbPoint
 10
71.44999186197917
 20
97.5666724310981
 30
0.0
  0
LWPOLYLINE
  5
1F3
330
17
100
AcDbEntity
  8
GAS
100
AcDbPolyline
 90
3
 70
0
 10
204.56666734483508
 20
266.38332790798614
 10
201.43332587348092
 20
278.48332722981775
 10
175.750003390842
 20
278.48332722981775
  0
POINT
  5
1F4
330
17
100
AcDbEntity
  8
VERTICES
100
AcDbPoint
 10
204.56666734483508
 20
266.38332790798614
 30
0.0
  0
POINT
  5
1F5
330
17
100
AcDbEntity
  8
VERTICES
100
AcDbPoint
 10
201.43332587348092
 20
278.48332722981775
 30
0.0
  0
POINT
  5
1F6
330
17
100
AcDbEntity
  8
VERTICES
100
AcDbPoint
 10
175.750003390842
 20
278.48332722981775
 30
0.0
  0
LWPOLYLINE
  5
1F7
330
17
100
AcDbEntity
  8
GAS
100
AcDbPolyline
 90
3
 70
0
 10
245.83333333333334
 20
75.06666395399306
 10
243.31666734483508
 20
91.93333095974393
 10
217.5
 20
91.93333095974393
  0
POINT
  5
1F8
330
17
100
AcDbEntity
  8
VERTICES
100
AcDbPoint
 10
245.83333333333334
 20
75.06666395399306
 30
0.0
  0
POINT
  5
1F9
330
17
100
AcDbEntity
  8
VERTICES
100
AcDbPoint
 10
243.31666734483508
 20
91.93333095974393
 30
0.0
  0
POINT
  5
1FA
330
17
100
AcDbEntity
  8
VERTICES
100
AcDbPoint
 10
217.5
 20
91.93333095974393
 30
0.0
  0
LWPOLYLINE
  5
1FB
330
17
100
AcDbEntity
  8
AGUA
100
AcDbPolyline
 90
3
 70
0
 10
228.20000542534723
 20
66.26666598849826
 10
223.58334011501736
 20
43.366665310329864
 10
222.43333604600696
 20
43.366665310329864
  0
POINT
  5
1FC
330
17
100
AcDbEntity
  8
VERTICES
100
AcDbPoint
 10
228.20000542534723
 20
66.26666598849826
 30
0.0
  0
POINT
  5
1FD
330
17
100
AcDbEntity
  8
VERTICES
100
AcDbPoint
 10
223.58334011501736
 20
43.366665310329864
 30
0.0
  0
POINT
  5
1FE
330
17
100
AcDbEntity
  8
VERTICES
100
AcDbPoint
 10
222.43333604600696
 20
43.366665310329864
 30
0.0
  0
LWPOLYLINE
  5
1FF
330
17
100
AcDbEntity
  8
AGUA
100
AcDbPolyline
 90
3
 70
0
 10
203.11665852864584
 20
263.86667887369794
 10
196.64998372395834
 20
275.28333875868054
 10
182.08333333333334
 20
275.250006781684
  0
POINT
  5
200
330
17
100
AcDbEntity
  8
VERTICES
100
AcDbPoint
 10
203.11665852864584
 20
263.86667887369794
 30
0.0
  0
POINT
  5
201
330
17
100
AcDbEntity
  8
VERTICES
100
AcDbPoint
 10
196.64998372395834
 20
275.28333875868054
 30
0.0
  0
POINT
  5
202
330
17
100
AcDbEntity
  8
VERTICES
100
AcDbPoint
 10
182.08333333333334
 20
275.250006781684
 30
0.0
  0
LWPOLYLINE
  5
203
330
17
100
AcDbEntity
  8
AGUA
100
AcDbPolyline
 90
3
 70
0
 10
214.03333875868057
 20
259.8333401150174
 10
220.68333943684897
 20
249.85000610351562
 10
239.70001220703125
 20
249.85000610351562
  0
POINT
  5
204
330
17
100
AcDbEntity
  8
VERTICES
100
AcDbPoint
 10
214.03333875868057
 20
259.8333401150174
 30
0.0
  0
POINT
  5
205
330
17
100
AcDbEntity
  8
VERTICES
100
AcDbPoint
 10
220.68333943684897
 20
249.85000610351562
 30
0.0
  0
POINT
  5
206
330
17
100
AcDbEntity
  8
VERTICES
100
AcDbPoint
 10
239.70001220703125
 20
249.85000610351562
 30
0.0
  0
LWPOLYLINE
  5
207
330
17
100
AcDbEntity
  8
AGUA
100
AcDbPolyline
 90
3
 70
0
 10
372.316657172309
 20
84.19999864366319
 10
375.7833184136285
 20
82.2999996609158
 10
378.3666653103299
 20
82.2999996609158
  0
POINT
  5
208
330
17
100
AcDbEntity
  8
VERTICES
100
AcDbPoint
 10
372.316657172309
 20
84.19999864366319
 30
0.0
  0
POINT
  5
209
330
17
100
AcDbEntity
  8
VERTICES
100
AcDbPoint
 10
375.7833184136285
 20
82.2999996609158
 30
0.0
  0
POINT
  5
20A
330
17
100
AcDbEntity
  8
VERTICES
100
AcDbPoint
 10
378.3666653103299
 20
82.2999996609158
 30
0.0
  0
LWPOLYLINE
  5
20B
330
17
100
AcDbEntity
  8
AGUA
100
AcDbPolyline
 90
3
 70
0
 10
372.9166666666667
 20
157.4166700575087
 10
382.26667616102435
 20
172.7166748046875
 10
385.5000135633681
 20
172.7166748046875
  0
POINT
  5
20C
330
17
100
AcDbEntity
  8
VERTICES
100
AcDbPoint
 10
372.9166666666667
 20
157.4166700575087
 30
0.0
  0
POINT
  5
20D
330
17
100
AcDbEntity
  8
VERTICES
100
AcDbPoint
 10
382.26667616102435
 20
172.7166748046875
 30
0.0
  0
POINT
  5
20E
330
17
100
AcDbEntity
  8
VERTICES
100
AcDbPoint
 10
385.5000135633681
 20
172.7166748046875
 30
0.0
  0
LWPOLYLINE
  5
20F
330
17
100
AcDbEntity
  8
AGUA
100
AcDbPolyline
 90
3
 70
0
 10
331.31666395399304
 20
104.98333401150174
 10
329.1166517469618
 20
108.16666497124567
 10
327.41665310329864
 20
108.16666497124567
  0
POINT
  5
210
330
17
100
AcDbEntity
  8
VERTICES
100
AcDbPoint
 10
331.31666395399304
 20
104.98333401150174
 30
0.0
  0
POINT
  5
211
330
17
100
AcDbEntity
  8
VERTICES
100
AcDbPoint
 10
329.1166517469618
 20
108.16666497124567
 30
0.0
  0
POINT
  5
212
330
17
100
AcDbEntity
  8
VERTICES
100
AcDbPoint
 10
327.41665310329864
 20
108.16666497124567
 30
0.0
  0
LWPOLYLINE
  5
213
330
17
100
AcDbEntity
  8
AGUA
100
AcDbPolyline
 90
3
 70
0
 10
119.16666666666667
 20
189.53333536783856
 10
96.25
 20
195.80000135633682
 10
61.18333180745443
 20
195.80000135633682
  0
POINT
  5
214
330
17
100
AcDbEntity
  8
VERTICES
100
AcDbPoint
 10
119.16666666666667
 20
189.53333536783856
 30
0.0
  0
POINT
  5
215
330
17
100
AcDbEntity
  8
VERTICES
100
AcDbPoint
 10
96.25
 20
195.80000135633682
 30
0.0
  0
POINT
  5
216
330
17
100
AcDbEntity
  8
VERTICES
100
AcDbPoint
 10
61.18333180745443
 20
195.80000135633682
 30
0.0
  0
LWPOLYLINE
  5
217
330
17
100
AcDbEntity
  8
DRENAJE
100
AcDbPolyline
 90
3
 70
0
 10
185.35000271267361
 20
163.51665920681424
 10
188.73333401150174
 20
170.33331976996527
 10
192.05000135633682
 20
170.33331976996527
  0
POINT
  5
218
330
17
100
AcDbEntity
  8
VERTICES
100
AcDbPoint
 10
185.35000271267361
 20
163.51665920681424
 30
0.0
  0
POINT
  5
219
330
17
100
AcDbEntity
  8
VERTICES
100
AcDbPoint
 10
188.73333401150174
 20
170.33331976996527
 30
0.0
  0
POINT
  5
21A
330
17
100
AcDbEntity
  8
VERTICES
100
AcDbPoint
 10
192.05000135633682
 20
170.33331976996527
 30
0.0
  0
LWPOLYLINE
  5
21B
330
17
100
AcDbEntity
  8
DRENAJE
100
AcDbPolyline
 90
3
 70
0
 10
230.750003390842
 20
58.76666598849827
 10
228.60000610351562
 20
45.46666463216146
 10
245.6666734483507
 20
45.46666463216146
  0
POINT
  5
21C
330
17
100
AcDbEntity
  8
VERTICES
100
AcDbPoint
 10
230.750003390842
 20
58.76666598849827
 30
0.0
  0
POINT
  5
21D
330
17
100
AcDbEntity
  8
VERTICES
100
AcDbPoint
 10
228.60000610351562
 20
45.46666463216146
 30
0.0
  0
POINT
  5
21E
330
17
100
AcDbEntity
  8
VERTICES
100
AcDbPoint
 10
245.6666734483507
 20
45.46666463216146
 30
0.0
  0
LINE
  5
21F
330
17
100
AcDbEntity
  8
AGUA
100
AcDbLine
 10
115.21665785047743
 20
144.4166734483507
 30
0.0
 11
115.21665785047743
 21
142.5
 31
0.0
  0
POINT
  5
220
330
17
100
AcDbEntity
  8
VERTICES
100
AcDbPoint
 10
115.21665785047743
 20
144.4166734483507
 30
0.0
  0
POINT
  5
221
330
17
100
AcDbEntity
  8
VERTICES
100
AcDbPoint
 10
115.21665785047743
 20
142.5
 30
0.0
  0
LWPOLYLINE
  5
222
330
17
100
AcDbEntity
  8
AGUA
100
AcDbPolyline
 90
3
 70
0
 10
148.316650390625
 20
154.2833285861545
 10
139.18331570095486
 20
150.68332248263889
 10
135.98331875271268
 20
150.68332248263889
  0
POINT
  5
223
330
17
100
AcDbEntity
  8
VERTICES
100
AcDbPoint
 10
148.316650390625
 20
154.2833285861545
 30
0.0
  0
POINT
  5
224
330
17
100
AcDbEntity
  8
VERTICES
100
AcDbPoint
 10
139.18331570095486
 20
150.68332248263889
 30
0.0
  0
POINT
  5
225
330
17
100
AcDbEntity
  8
VERTICES
100
AcDbPoint
 10
135.98331875271268
 20
150.68332248263889
 30
0.0
  0
LWPOLYLINE
  5
226
330
17
100
AcDbEntity
  8
ALCANTARILLADO
100
AcDbPolyline
 90
3
 70
0
 10
355.6833224826389
 20
228.45001220703125
 10
341.0499742296007
 20
230.30000474717883
 10
317.41665310329864
 20
230.3500196668837
  0
POINT
  5
227
330
17
100
AcDbEntity
  8
VERTICES
100
AcDbPoint
 10
355.6833224826389
 20
228.45001220703125
 30
0.0
  0
POINT
  5
228
330
17
100
AcDbEntity
  8
VERTICES
100
AcDbPoint
 10
341.0499742296007
 20
230.30000474717883
 30
0.0
  0
POINT
  5
229
330
17
100
AcDbEntity
  8
VERTICES
100
AcDbPoint
 10
317.41665310329864
 20
230.3500196668837
 30
0.0
  0
LWPOLYLINE
  5
22A
330
17
100
AcDbEntity
  8
AGUA
100
AcDbPolyline
 90
3
 70
0
 10
374.35000949435766
 20
245.71665445963544
 10
391.8833414713542
 20
247.74998982747397
 10
421.58335367838544
 20
247.71665785047745
  0
POINT
  5
22B
330
17
100
AcDbEntity
  8
VERTICES
100
AcDbPoint
 10
374.35000949435766
 20
245.71665445963544
 30
0.0
  0
POINT
  5
22C
330
17
100
AcDbEntity
  8
VERTICES
100
AcDbPoint
 10
391.8833414713542
 20
247.74998982747397
 30
0.0
  0
POINT
  5
22D
330
17
100
AcDbEntity
  8
VERTICES
100
AcDbPoint
 10
421.58335367838544
 20
247.71665785047745
 30
0.0
  0
LWPOLYLINE
  5
22E
330
17
100
AcDbEntity
  8
DRENAJE
100
AcDbPolyline
 90
3
 70
0
 10
370.8666653103299
 20
234.90000406901044
 10
373.7666490342882
 20
229.7333441840278
 10
407.40000406901044
 20
229.7333441840278
  0
POINT
  5
22F
330
17
100
AcDbEntity
  8
VERTICES
100
AcDbPoint
 10
370.8666653103299
 20
234.90000406901044
 30
0.0
  0
POINT
  5
230
330
17
100
AcDbEntity
  8
VERTICES
100
AcDbPoint
 10
373.7666490342882
 20
229.7333441840278
 30
0.0
  0
POINT
  5
231
330
17
100
AcDbEntity
  8
VERTICES
100
AcDbPoint
 10
407.40000406901044
 20
229.7333441840278
 30
0.0
  0
ENDSEC
  0
SECTION
  2
OBJECTS
  0
DICTIONARY
  5
A
330
0
100
AcDbDictionary
281
1
  3
ACAD_COLOR
350
B
  3
ACAD_GROUP
350
C
  3
ACAD_LAYOUT
350
D
  3
ACAD_MATERIAL
350
E
  3
ACAD_MLEADERSTYLE
350
F
  3
ACAD_MLINESTYLE
350
10
  3
ACAD_PLOTSETTINGS
350
11
  3
ACAD_PLOTSTYLENAME
350
12
  3
ACAD_SCALELIST
350
14
  3
ACAD_TABLESTYLE
350
15
  3
ACAD_VISUALSTYLE
350
16
  3
EZDXF_META
350
2D
  0
DICTIONARY
  5
B
330
A
100
AcDbDictionary
281
1
  0
DICTIONARY
  5
C
330
A
100
AcDbDictionary
281
1
  0
DICTIONARY
  5
D
330
A
100
AcDbDictionary
281
1
  3
Model
350
1A
  3
Layout1
350
1E
  0
DICTIONARY
  5
E
330
A
100
AcDbDictionary
281
1
  3
ByBlock
350
1F
  3
ByLayer
350
20
  3
Global
350
21
  0
DICTIONARY
  5
F
330
A
100
AcDbDictionary
281
1
  3
Standard
350
2C
  0
DICTIONARY
  5
10
330
A
100
AcDbDictionary
281
1
  3
Standard
350
22
  0
DICTIONARY
  5
11
330
A
100
AcDbDictionary
281
1
  0
ACDBDICTIONARYWDFLT
  5
12
330
A
100
AcDbDictionary
281
1
  3
Normal
350
13
100
AcDbDictionaryWithDefault
340
13
  0
ACDBPLACEHOLDER
  5
13
330
12
  0
DICTIONARY
  5
14
330
A
100
AcDbDictionary
281
1
  0
DICTIONARY
  5
15
330
A
100
AcDbDictionary
281
1
  0
DICTIONARY
  5
16
330
A
100
AcDbDictionary
281
1
  3
2dWireframe
350
5A
  3
Basic
350
5B
  3
Brighten
350
5C
  3
ColorChange
350
5D
  3
Conceptual
350
5E
  3
Dim
350
5F
  3
EdgeColorOff
350
60
  3
Facepattern
350
61
  3
Flat
350
62
  3
FlatWithEdges
350
63
  3
Gouraud
350
64
  3
GouraudWithEdges
350
65
  3
Hidden
350
66
  3
JitterOff
350
67
  3
Linepattern
350
68
  3
Modeling
350
69
  3
OverhangOff
350
6A
  3
Realistic
350
6B
  3
Shaded
350
6C
  3
Shaded with edges
350
6D
  3
Shades of Gray
350
6E
  3
Sketchy
350
6F
  3
Thicken
350
70
  3
Wireframe
350
71
  3
X-Ray
350
72
  0
LAYOUT
  5
1A
330
D
100
AcDbPlotSettings
  1

  4
A3
  6

 40
7.5
 41
20.0
 42
7.5
 43
20.0
 44
420.0
 45
297.0
 46
0.0
 47
0.0
 48
0.0
 49
0.0
140
0.0
141
0.0
142
1.0
143
1.0
 70
1024
 72
1
 73
0
 74
5
  7

 75
16
 76
0
 77
2
 78
300
147
1.0
148
0.0
149
0.0
100
AcDbLayout
  1
Model
 70
1
 71
0
 10
0.0
 20
0.0
 11
420.0
 21
297.0
 12
0.0
 22
0.0
 32
0.0
 14
1e+20
 24
1e+20
 34
1e+20
 15
-1e+20
 25
-1e+20
 35
-1e+20
146
0.0
 13
0.0
 23
0.0
 33
0.0
 16
1.0
 26
0.0
 36
0.0
 17
0.0
 27
1.0
 37
0.0
 76
1
330
17
  0
LAYOUT
  5
1E
330
D
100
AcDbPlotSettings
  1

  4
A3
  6

 40
7.5
 41
20.0
 42
7.5
 43
20.0
 44
420.0
 45
297.0
 46
0.0
 47
0.0
 48
0.0
 49
0.0
140
0.0
141
0.0
142
1.0
143
1.0
 70
0
 72
1
 73
0
 74
5
  7

 75
16
 76
0
 77
2
 78
300
147
1.0
148
0.0
149
0.0
100
AcDbLayout
  1
Layout1
 70
1
 71
1
 10
0.0
 20
0.0
 11
420.0
 21
297.0
 12
0.0
 22
0.0
 32
0.0
 14
1e+20
 24
1e+20
 34
1e+20
 15
-1e+20
 25
-1e+20
 35
-1e+20
146
0.0
 13
0.0
 23
0.0
 33
0.0
 16
1.0
 26
0.0
 36
0.0
 17
0.0
 27
1.0
 37
0.0
 76
1
330
1B
  0
MATERIAL
  5
1F
102
{ACAD_REACTORS
330
E
102
}
330
E
100
AcDbMaterial
  1
ByBlock
  2

 70
0
 40
1.0
 71
1
 41
1.0
 91
-1023410177
 42
1.0
 72
1
  3

 73
1
 74
1
 75
1
 44
0.5
 73
0
 45
1.0
 46
1.0
 77
1
  4

 78
1
 79
1
170
1
 48
1.0
171
1
  6

172
1
173
1
174
1
140
1.0
141
1.0
175
1
  7

176
1
177
1
178
1
143
1.0
179
1
  8

270
1
271
1
272
1
145
1.0
146
1.0
273
1
  9

274
1
275
1
276
1
 42
1.0
 72
1
  3

 73
1
 74
1
 75
1
 94
63
  0
MATERIAL
  5
20
102
{ACAD_REACTORS
330
E
102
}
330
E
100
AcDbMaterial
  1
ByLayer
  2

 70
0
 40
1.0
 71
1
 41
1.0
 91
-1023410177
 42
1.0
 72
1
  3

 73
1
 74
1
 75
1
 44
0.5
 73
0
 45
1.0
 46
1.0
 77
1
  4

 78
1
 79
1
170
1
 48
1.0
171
1
  6

172
1
173
1
174
1
140
1.0
141
1.0
175
1
  7

176
1
177
1
178
1
143
1.0
179
1
  8

270
1
271
1
272
1
145
1.0
146
1.0
273
1
  9

274
1
275
1
276
1
 42
1.0
 72
1
  3

 73
1
 74
1
 75
1
 94
63
  0
MATERIAL
  5
21
102
{ACAD_REACTORS
330
E
102
}
330
E
100
AcDbMaterial
  1
Global
  2

 70
0
 40
1.0
 71
1
 41
1.0
 91
-1023410177
 42
1.0
 72
1
  3

 73
1
 74
1
 75
1
 44
0.5
 73
0
 45
1.0
 46
1.0
 77
1
  4

 78
1
 79
1
170
1
 48
1.0
171
1
  6

172
1
173
1
174
1
140
1.0
141
1.0
175
1
  7

176
1
177
1
178
1
143
1.0
179
1
  8

270
1
271
1
272
1
145
1.0
146
1.0
273
1
  9

274
1
275
1
276
1
 42
1.0
 72
1
  3

 73
1
 74
1
 75
1
 94
63
  0
MLINESTYLE
  5
22
102
{ACAD_REACTORS
330
10
102
}
330
10
100
AcDbMlineStyle
  2
Standard
 70
0
  3

 62
256
 51
90.0
 52
90.0
 71
2
 49
0.5
 62
256
  6
BYLAYER
 49
-0.5
 62
256
  6
BYLAYER
  0
MLEADERSTYLE
  5
2C
102
{ACAD_REACTORS
330
F
102
}
330
F
100
AcDbMLeaderStyle
179
2
170
2
171
1
172
0
 90
2
 40
0.0
 41
0.0
173
1
 91
-1056964608
 92
-2
290
1
 42
2.0
291
1
 43
8.0
  3
Standard
 44
4.0
300

342
29
174
1
175
1
176
0
178
1
 93
-1056964608
 45
4.0
292
0
297
0
 46
4.0
 94
-1056964608
 47
1.0
 49
1.0
140
1.0
294
1
141
0.0
177
0
142
1.0
295
0
296
0
143
3.75
271
0
272
9
273
9
  0
DICTIONARY
  5
2D
330
A
100
AcDbDictionary
280
1
281
1
  3
CREATED_BY_EZDXF
350
2E
  3
WRITTEN_BY_EZDXF
350
234
  0
DICTIONARYVAR
  5
2E
330
2D
100
DictionaryVariables
280
0
  1
1.4.2 @ 2026-07-02T20:58:02.847370+00:00
  0
VISUALSTYLE
  5
5A
102
{ACAD_REACTORS
330
16
102
}
330
16
100
AcDbVisualStyle
  2
2dWireframe
 70
4
 90
0
 40
0.6
 62
7
290
0
291
0
  0
VISUALSTYLE
  5
5B
102
{ACAD_REACTORS
330
16
102
}
330
16
100
AcDbVisualStyle
  2
Basic
 70
7
 90
1
 40
0.6
 62
7
290
0
291
1
  0
VISUALSTYLE
  5
5C
102
{ACAD_REACTORS
330
16
102
}
330
16
100
AcDbVisualStyle
  2
Brighten
 70
12
 90
2
 40
0.6
 62
7
290
0
291
1
  0
VISUALSTYLE
  5
5D
102
{ACAD_REACTORS
330
16
102
}
330
16
100
AcDbVisualStyle
  2
ColorChange
 70
16
 90
2
 40
0.6
 62
8
290
0
291
1
  0
VISUALSTYLE
  5
5E
102
{ACAD_REACTORS
330
16
102
}
330
16
100
AcDbVisualStyle
  2
Conceptual
 70
9
 90
3
 40
0.6
 62
7
290
0
291
0
  0
VISUALSTYLE
  5
5F
102
{ACAD_REACTORS
330
16
102
}
330
16
100
AcDbVisualStyle
  2
Dim
 70
11
 90
2
 40
0.6
 62
7
290
0
291
1
  0
VISUALSTYLE
  5
60
102
{ACAD_REACTORS
330
16
102
}
330
16
100
AcDbVisualStyle
  2
EdgeColorOff
 70
22
 90
2
 40
0.6
 62
7
290
0
291
1
  0
VISUALSTYLE
  5
61
102
{ACAD_REACTORS
330
16
102
}
330
16
100
AcDbVisualStyle
  2
Facepattern
 70
15
 90
2
 40
0.6
 62
7
290
0
291
1
  0
VISUALSTYLE
  5
62
102
{ACAD_REACTORS
330
16
102
}
330
16
100
AcDbVisualStyle
  2
Flat
 70
0
 90
2
 40
0.6
 62
7
290
0
291
1
  0
VISUALSTYLE
  5
63
102
{ACAD_REACTORS
330
16
102
}
330
16
100
AcDbVisualStyle
  2
FlatWithEdges
 70
1
 90
2
 40
0.6
 62
7
290
0
291
1
  0
VISUALSTYLE
  5
64
102
{ACAD_REACTORS
330
16
102
}
330
16
100
AcDbVisualStyle
  2
Gouraud
 70
2
 90
2
 40
0.6
 62
7
290
0
291
1
  0
VISUALSTYLE
  5
65
102
{ACAD_REACTORS
330
16
102
}
330
16
100
AcDbVisualStyle
  2
GouraudWithEdges
 70
3
 90
2
 40
0.6
 62
7
290
0
291
1
  0
VISUALSTYLE
  5
66
102
{ACAD_REACTORS
330
16
102
}
330
16
100
AcDbVisualStyle
  2
Hidden
 70
6
 90
1
 40
0.6
 62
7
290
0
291
0
  0
VISUALSTYLE
  5
67
102
{ACAD_REACTORS
330
16
102
}
330
16
100
AcDbVisualStyle
  2
JitterOff
 70
20
 90
2
 40
0.6
 62
7
290
0
291
1
  0
VISUALSTYLE
  5
68
102
{ACAD_REACTORS
330
16
102
}
330
16
100
AcDbVisualStyle
  2
Linepattern
 70
14
 90
2
 40
0.6
 62
7
290
0
291
1
  0
VISUALSTYLE
  5
69
102
{ACAD_REACTORS
330
16
102
}
330
16
100
AcDbVisualStyle
  2
Modeling
 70
10
 90
2
 40
0.6
 62
7
290
0
291
0
  0
VISUALSTYLE
  5
6A
102
{ACAD_REACTORS
330
16
102
}
330
16
100
AcDbVisualStyle
  2
OverhangOff
 70
21
 90
2
 40
0.6
 62
7
290
0
291
1
  0
VISUALSTYLE
  5
6B
102
{ACAD_REACTORS
330
16
102
}
330
16
100
AcDbVisualStyle
  2
Realistic
 70
8
 90
2
 40
0.6
 62
7
290
0
291
0
  0
VISUALSTYLE
  5
6C
102
{ACAD_REACTORS
330
16
102
}
330
16
100
AcDbVisualStyle
  2
Shaded
 70
27
 90
2
 40
0.6
 62
7
290
0
291
0
  0
VISUALSTYLE
  5
6D
102
{ACAD_REACTORS
330
16
102
}
330
16
100
AcDbVisualStyle
  2
Shaded with edges
 70
26
 90
2
 40
0.6
 62
7
290
0
291
0
  0
VISUALSTYLE
  5
6E
102
{ACAD_REACTORS
330
16
102
}
330
16
100
AcDbVisualStyle
  2
Shades of Gray
 70
23
 90
2
 40
0.6
 62
7
290
0
291
0
  0
VISUALSTYLE
  5
6F
102
{ACAD_REACTORS
330
16
102
}
330
16
100
AcDbVisualStyle
  2
Sketchy
 70
24
 90
1
 40
0.6
 62
7
290
0
291
0
  0
VISUALSTYLE
  5
70
102
{ACAD_REACTORS
330
16
102
}
330
16
100
AcDbVisualStyle
  2
Thicken
 70
13
 90
2
 40
0.6
 62
7
290
0
291
1
  0
VISUALSTYLE
  5
71
102
{ACAD_REACTORS
330
16
102
}
330
16
100
AcDbVisualStyle
  2
Wireframe
 70
5
 90
0
 40
0.6
 62
7
290
0
291
0
  0
VISUALSTYLE
  5
72
102
{ACAD_REACTORS
330
16
102
}
330
16
100
AcDbVisualStyle
  2
X-Ray
 70
25
 90
2
 40
0.5
 62
7
290
0
291
0
  0
DICTIONARYVAR
  5
234
330
2D
100
DictionaryVariables
280
0
  1
1.4.2 @ 2026-07-02T20:58:02.866188+00:00
  0
ENDSEC
  0
EOF
